<?xml version="1.0" encoding="UTF-8"?>
<svg xmlns="http://www.w3.org/2000/svg" xmlns:xlink="http://www.w3.org/1999/xlink" width="px" height="50px" viewBox="0 0 35 49" version="1.1">
<g id="surface1">
<path style=" stroke:none;fill-rule:nonzero;fill:rgb(0%,0%,0%);fill-opacity:1;" d="M 22.6875 6.203125 C 21.722656 6.292969 20.445312 6.859375 19.375 9.210938 C 19.347656 9.15625 18.453125 7.351562 16.339844 6.53125 C 16.402344 6.621094 17.058594 7.660156 15.632812 11.019531 C 15.632812 11.019531 14.835938 9.167969 12.636719 7.777344 C 11.972656 11.3125 11.75 12.839844 12.816406 16.246094 C 12.648438 17.054688 12.601562 17.828125 13.105469 18.386719 C 13.515625 18.84375 14.09375 19.335938 14.023438 19.648438 C 9.734375 21.085938 6.644531 25.105469 6.644531 29.835938 C 6.644531 35.769531 11.507812 40.582031 17.503906 40.582031 C 23.496094 40.582031 28.359375 35.769531 28.359375 29.835938 C 28.359375 25.128906 25.300781 21.121094 21.042969 19.667969 C 21.003906 19.128906 21.152344 18.859375 21.855469 18.527344 C 22.746094 18.109375 22.417969 16.351562 21.339844 15.746094 C 21.234375 15.6875 21.074219 15.621094 20.867188 15.550781 C 20.882812 14.8125 21.464844 14.105469 22.042969 13.570312 C 22.792969 12.875 22.976562 10.929688 22.511719 10.140625 C 22.042969 9.351562 21.980469 8.363281 22.699219 6.203125 C 22.695312 6.203125 22.691406 6.203125 22.6875 6.203125 Z M 17.597656 8.703125 C 18.671875 10.140625 18.4375 12.410156 18.953125 12.457031 C 19.46875 12.503906 19.75 9.863281 21.0625 8.796875 C 21.808594 10.695312 22.277344 11.945312 20.917969 13.105469 C 19.5625 14.265625 19.6875 15.003906 19.65625 15.839844 C 19.625 16.628906 19.5625 17.046875 18.488281 17.183594 C 17.410156 17.324219 16.519531 15.839844 16.332031 13.660156 C 16.144531 11.484375 17.785156 9.628906 17.597656 8.703125 Z M 13.617188 9.769531 C 13.617188 9.769531 14.320312 10.882812 14.789062 12.132812 C 15.257812 13.382812 15.023438 14.726562 16.472656 17.089844 C 16.472656 17.089844 16.472656 17.09375 16.472656 17.09375 C 16.46875 17.09375 16.46875 17.09375 16.46875 17.09375 C 16.46875 17.09375 16.46875 17.097656 16.464844 17.097656 C 16.363281 17.140625 15.242188 17.164062 13.992188 15.839844 C 12.683594 14.449219 12.636719 12.503906 13.617188 9.769531 Z M 16.214844 20.9375 C 12.753906 25.015625 15.984375 25.238281 18.578125 24.34375 C 21.167969 23.449219 26.839844 24.757812 27.492188 29.09375 C 25.644531 27.144531 21.839844 26.363281 18.296875 29.996094 C 15.023438 33.355469 10.320312 36.332031 8.351562 31.527344 C 6.949219 28.097656 9.03125 21.539062 16.214844 20.9375 Z M 23.9375 35.210938 C 22.929688 38.59375 18.742188 39.867188 16.003906 37.898438 C 17.832031 37.664062 21.855469 36.296875 23.9375 35.210938 Z M 10.765625 36.019531 C 11.722656 36.484375 12.542969 37.039062 13.125 38.058594 C 12.074219 37.894531 11.089844 37.085938 10.765625 36.019531 Z M 10.765625 36.019531 "/>
</g>
</svg>
