<?xml version="1.0" encoding="UTF-8"?>
<svg xmlns="http://www.w3.org/2000/svg" xmlns:xlink="http://www.w3.org/1999/xlink" width="px" height="50px" viewBox="0 0 35 49" version="1.1">
<g id="surface1">
<path style=" stroke:none;fill-rule:evenodd;fill:rgb(0%,0%,0%);fill-opacity:1;" d="M 8.941406 7.070312 C 7.894531 7.125 7.066406 7.988281 7.066406 9.035156 C 7.066406 10.015625 7.792969 10.828125 8.742188 10.976562 C 8.777344 11.398438 8.828125 11.859375 8.851562 12.3125 C 8.917969 13.558594 9.777344 22.894531 9.414062 23.320312 C 9.039062 23.765625 7.429688 23.484375 6.4375 23.449219 C 5.445312 23.417969 5.378906 24.894531 6.4375 24.957031 C 7.335938 25.015625 8.382812 25.140625 9.46875 25.117188 C 9.5 25.339844 9.527344 25.597656 9.546875 25.875 C 9.613281 26.890625 8.488281 27.941406 8.027344 28.53125 C 7.5625 29.121094 7.660156 29.710938 8.15625 29.839844 C 8.644531 29.96875 8.386719 30.136719 8.386719 30.429688 C 8.386719 30.726562 8.316406 31.183594 8.6875 31.578125 C 9.183594 32.101562 8.683594 32.503906 8.71875 33.3125 C 8.746094 33.9375 9.199219 34.414062 10.242188 34.808594 C 10.859375 37.160156 10.535156 40.003906 10.441406 41.113281 C 13.519531 40.652344 21.0625 38.851562 21.890625 38.359375 C 21.757812 37.34375 21.128906 33.738281 21.226562 33.117188 C 21.308594 32.605469 21.078125 32.179688 20.71875 32.121094 C 20.675781 30.855469 21.070312 30.066406 22.089844 28.890625 C 23.453125 27.3125 22.964844 24.246094 22.039062 23.675781 C 22.351562 18.761719 20.691406 13.164062 20.171875 11.035156 C 19.605469 8.738281 19.277344 8.378906 18.679688 8.414062 C 18.261719 8.433594 13.796875 8.699219 11.035156 8.992188 C 11.011719 7.925781 10.132812 7.070312 9.050781 7.070312 C 9.039062 7.070312 9.023438 7.070312 9.011719 7.070312 C 9.003906 7.070312 8.996094 7.070312 8.988281 7.070312 C 8.984375 7.070312 8.980469 7.070312 8.976562 7.070312 C 8.972656 7.070312 8.96875 7.070312 8.964844 7.070312 C 8.960938 7.070312 8.957031 7.070312 8.953125 7.070312 C 8.949219 7.070312 8.945312 7.070312 8.941406 7.070312 Z M 17.808594 9.273438 C 17.816406 9.273438 17.816406 9.273438 17.820312 9.273438 C 17.839844 9.273438 17.855469 9.273438 17.871094 9.273438 C 18.5 9.269531 18.796875 9.3125 18.878906 9.363281 C 19.042969 9.460938 19.476562 10.542969 19.242188 10.738281 C 19.011719 10.933594 16.097656 10.902344 15.96875 11.164062 C 15.835938 11.425781 16.429688 21.519531 16.628906 21.78125 C 16.828125 22.042969 20.867188 21.320312 20.996094 21.519531 C 21.128906 21.714844 21.195312 22.699219 20.929688 22.828125 C 20.667969 22.960938 18.878906 23.1875 15.902344 23.515625 C 12.921875 23.84375 10.871094 24.007812 10.738281 23.84375 C 10.605469 23.679688 10.507812 22.960938 10.804688 22.597656 C 11.101562 22.238281 14.777344 22.304688 15.039062 21.945312 C 15.304688 21.585938 14.578125 11.394531 14.3125 11.230469 C 14.046875 11.066406 10.242188 11.984375 9.976562 11.820312 C 9.714844 11.65625 9.578125 10.476562 9.8125 10.3125 C 10.042969 10.148438 11.996094 9.722656 14.84375 9.460938 C 16.199219 9.335938 17.140625 9.285156 17.773438 9.277344 C 17.785156 9.277344 17.796875 9.277344 17.808594 9.273438 Z M 10.140625 15.128906 C 12.921875 15.488281 12.691406 19.355469 10.273438 19.714844 C 10.109375 18.242188 9.84375 15.914062 10.140625 15.128906 Z M 15.046875 24.734375 C 15.046875 24.734375 11.730469 33.289062 11.503906 33.683594 C 11.246094 34.136719 10.492188 33.945312 10.140625 33.773438 C 9.679688 33.542969 9.613281 32.953125 9.78125 32.691406 C 9.945312 32.429688 9.878906 32.136719 9.714844 31.871094 C 9.546875 31.609375 9.8125 31.25 10.078125 31.054688 C 10.339844 30.855469 10.738281 30.136719 10.773438 29.839844 C 10.804688 29.546875 10.011719 29.769531 9.214844 29.546875 C 8.492188 29.339844 9.445312 28.335938 10.101562 27.671875 C 10.300781 27.917969 10.570312 28.214844 10.707031 28.234375 C 10.9375 28.269531 13.285156 27.382812 13.386719 27.054688 C 13.472656 26.765625 11.054688 26.167969 10.492188 26.035156 C 10.457031 25.917969 10.433594 25.796875 10.441406 25.679688 C 10.457031 25.40625 10.546875 25.242188 10.734375 25.039062 C 11.671875 24.972656 13.308594 24.855469 15.046875 24.734375 Z M 17.984375 27.296875 C 17.984375 27.296875 17.984375 27.296875 17.988281 27.296875 C 17.988281 27.296875 17.992188 27.296875 17.992188 27.296875 C 17.996094 27.296875 17.996094 27.296875 18 27.296875 C 18.105469 27.289062 18.222656 27.335938 18.351562 27.449219 C 19.160156 28.171875 18.550781 29.226562 18.351562 29.609375 C 18.128906 30.03125 17.742188 30.566406 17.273438 30.636719 C 16.59375 30.742188 16.695312 31.433594 17.125 31.511719 C 18.167969 31.703125 18.515625 30.496094 19.277344 31.054688 C 19.753906 31.402344 19.804688 32.0625 19.421875 32.523438 C 18.890625 32.722656 18.179688 32.976562 17.222656 33.214844 C 16.378906 33.429688 14.785156 33.691406 13.320312 33.910156 L 15.042969 29.476562 C 16.1875 29.382812 16.835938 29.21875 17.15625 28.496094 C 17.40625 27.941406 17.640625 27.335938 17.984375 27.296875 Z M 18.925781 34.035156 C 18.925781 34.035156 18.929688 34.035156 18.929688 34.035156 C 18.929688 34.035156 18.933594 34.035156 18.933594 34.035156 C 18.933594 34.035156 18.9375 34.035156 18.9375 34.035156 C 18.9375 34.035156 18.9375 34.035156 18.941406 34.035156 C 18.941406 34.035156 18.941406 34.035156 18.945312 34.035156 C 18.960938 34.035156 18.96875 34.035156 18.976562 34.035156 C 19.289062 34.074219 19.375 34.855469 19.210938 35.148438 C 19.042969 35.445312 12.648438 37.085938 12.460938 36.820312 C 12.207031 36.464844 12.316406 35.605469 12.691406 35.441406 C 13.1875 35.230469 18.296875 34.09375 18.925781 34.035156 Z M 19.246094 36.328125 C 19.246094 36.328125 19.246094 36.328125 19.25 36.328125 C 19.25 36.328125 19.253906 36.328125 19.253906 36.328125 C 19.253906 36.328125 19.253906 36.328125 19.257812 36.328125 C 19.265625 36.328125 19.273438 36.328125 19.277344 36.328125 C 19.585938 36.367188 19.675781 37.148438 19.507812 37.441406 C 19.34375 37.738281 12.703125 39.59375 12.492188 39.34375 C 12.238281 39.039062 12.351562 38.164062 12.722656 37.96875 C 13.207031 37.710938 18.699219 36.371094 19.242188 36.328125 C 19.242188 36.328125 19.246094 36.328125 19.246094 36.328125 Z M 19.246094 36.328125 "/>
</g>
</svg>
