<?xml version="1.0" encoding="UTF-8"?>
<svg xmlns="http://www.w3.org/2000/svg" xmlns:xlink="http://www.w3.org/1999/xlink" width="px" height="50px" viewBox="0 0 35 49" version="1.1">
<g id="surface1">
<path style="fill-rule:evenodd;fill:rgb(0%,0%,0%);fill-opacity:1;stroke-width:1;stroke-linecap:butt;stroke-linejoin:miter;stroke:rgb(0%,0%,0%);stroke-opacity:1;stroke-miterlimit:4;" d="M 430.125 98.876594 C 373.826786 100.218431 319.189286 132.590242 309.391071 209.745855 C 309.391071 209.745855 213.9 243.543367 113.426786 281.36639 C 115.419643 300.06824 117.99375 317.176658 121.398214 333.027105 C 105.7875 383.849171 94.577679 445.74139 127.376786 452.450574 C 152.536607 457.650191 158.847321 437.52264 159.84375 421.336735 C 182.180357 451.444196 214.896429 479.119579 263.721429 510.401148 C 250.103571 546.127551 238.644643 577.828444 240.720536 603.99426 C 242.547321 627.476403 271.775893 676.788903 291.7875 708.154337 C 285.061607 710.083227 279.415179 715.03125 276.591964 728.449617 C 271.692857 751.680166 246.366964 856.511161 246.366964 856.511161 C 246.366964 856.511161 322.344643 900.120855 398.322321 898.024235 C 474.3 895.927615 534.75 852.317921 534.75 852.317921 C 534.75 852.317921 513.658929 742.538903 511.583036 734.068559 C 509.75625 727.023916 509.507143 714.86352 499.875 710.418686 C 543.385714 647.18463 556.007143 631.501913 557.252679 594.852997 C 558 573.467474 543.883929 544.030931 530.764286 521.555166 C 545.461607 501.679209 546.541071 482.474171 540.147321 451.528061 C 616.789286 358.941327 607.157143 232.640944 549.115179 152.046875 C 525.034821 118.500957 477.7875 98.289541 431.453571 98.876594 C 431.204464 98.876594 431.038393 98.876594 430.789286 98.876594 C 430.623214 98.876594 430.374107 98.876594 430.125 98.876594 Z M 441.251786 117.15912 C 573.361607 116.152742 617.453571 329.420918 533.255357 415.633929 C 533.670536 413.117985 546.707143 331.182079 517.3125 273.399235 C 517.3125 273.399235 530.266071 357.934949 483.516964 382.842793 C 484.513393 364.979592 483.433929 311.222258 454.620536 257.548788 C 455.284821 260.400191 473.801786 351.225765 425.807143 365.902105 C 425.807143 352.986926 421.821429 303.255102 388.939286 248.49139 C 403.885714 295.287946 410.860714 347.955038 356.223214 373.785395 C 356.8875 371.353316 351.573214 318.60236 339.283929 284.301658 C 325.333929 245.556122 305.405357 120.010523 439.674107 117.242985 C 440.255357 117.242985 440.753571 117.15912 441.251786 117.15912 Z M 299.426786 233.563457 C 299.509821 233.563457 299.509821 233.563457 299.509821 233.563457 C 299.509821 233.563457 299.592857 233.563457 299.592857 233.563457 C 299.592857 233.563457 299.675893 233.563457 299.675893 233.563457 C 299.675893 233.563457 299.758929 233.563457 299.758929 233.563457 C 300.091071 233.563457 300.257143 233.563457 300.423214 233.647321 C 306.401786 235.576212 313.376786 258.471301 311.383929 263.503189 C 309.391071 268.451212 151.208036 326.150191 145.229464 323.131059 C 139.250893 320.195791 133.6875 301.913265 138.254464 294.281569 C 142.572321 287.236926 285.144643 234.989158 299.426786 233.563457 Z M 405.878571 358.941327 L 412.853571 410.685906 L 460.599107 367.91486 L 462.591964 431.56824 L 509.341071 389.803571 C 509.341071 389.803571 511.333929 426.620217 503.3625 451.528061 C 489.4125 456.476084 415.842857 460.41773 368.097321 458.404974 C 321.514286 456.476084 292.036607 437.438776 290.625 436.600128 C 290.625 436.516263 290.708036 436.516263 290.708036 436.516263 C 290.708036 436.516263 290.791071 436.432398 290.791071 436.432398 C 290.791071 436.432398 290.874107 436.348533 290.874107 436.348533 C 290.874107 436.264668 290.874107 436.264668 290.874107 436.264668 C 290.874107 436.264668 290.874107 436.264668 290.874107 436.180804 C 290.874107 436.180804 290.957143 436.096939 290.957143 436.096939 C 291.289286 434.000319 288.466071 424.691327 301.419643 405.737883 C 316.366071 383.849171 342.190179 371.94037 342.190179 371.94037 L 351.158036 413.705038 Z M 157.933929 367.663265 C 157.933929 367.579401 158.016964 367.663265 158.016964 367.663265 C 158.016964 367.663265 158.016964 367.663265 158.1 367.663265 C 158.1 367.663265 158.183036 367.663265 158.183036 367.663265 C 168.313393 367.243941 212.571429 425.865434 285.559821 460.41773 C 361.122321 496.227997 511.333929 467.378508 520.301786 471.404018 C 529.269643 475.345663 523.291071 500.253508 519.305357 505.201531 C 515.319643 510.233418 411.857143 532.038265 306.401786 504.195153 C 200.946429 476.352041 149.215179 377.89477 157.186607 367.91486 C 157.186607 367.91486 157.269643 367.830995 157.269643 367.830995 C 157.352679 367.830995 157.435714 367.74713 157.51875 367.74713 C 157.684821 367.663265 157.767857 367.663265 157.933929 367.663265 Z M 389.271429 536.399235 C 389.4375 536.399235 389.686607 536.483099 389.935714 536.399235 C 390.184821 536.399235 390.433929 536.483099 390.683036 536.399235 L 392.426786 584.286033 C 363.447321 583.36352 340.114286 575.228635 301.585714 560.720026 C 311.633036 545.456633 332.724107 537.741071 389.271429 536.399235 Z M 504.525 567.09375 C 498.048214 606.342474 491.488393 660.351403 476.375893 671.505421 C 460.183929 683.498087 446.815179 681.317602 433.446429 670.079719 C 420.077679 658.841837 417.254464 646.849171 418.001786 627.224809 C 418.167857 623.283163 418.250893 619.593112 418.416964 616.23852 C 433.861607 615.483737 470.8125 613.219388 473.552679 611.038903 C 475.960714 609.026148 468.072321 598.03986 462.841071 591.414541 C 476.126786 585.711735 489.578571 577.744579 504.525 567.09375 Z M 295.108929 578.499362 C 309.972321 584.118304 322.59375 588.814732 334.052679 592.588648 L 325.167857 611.709821 C 325.167857 611.709821 361.039286 616.657844 368.761607 613.806441 C 373.079464 612.21301 379.722321 607.432717 384.704464 603.658801 C 387.444643 603.826531 390.350893 603.99426 393.174107 603.99426 L 394.917857 649.700574 C 394.917857 649.700574 377.314286 658.841837 367.433036 670.750638 C 357.634821 682.743304 342.854464 686.936543 318.940179 665.88648 C 298.347321 647.687819 291.289286 603.491071 295.108929 578.499362 Z M 404.882143 704.88361 C 404.882143 704.88361 404.965179 704.88361 404.965179 704.88361 C 405.048214 704.88361 405.048214 704.88361 405.048214 704.88361 C 405.048214 704.88361 405.13125 704.88361 405.13125 704.88361 C 405.13125 704.88361 405.214286 704.88361 405.214286 704.88361 C 409.033929 704.71588 413.102679 706.393176 417.254464 709.496173 C 425.724107 715.786033 426.471429 719.308355 441.251786 717.966518 C 444.739286 757.299107 365.938393 776.336416 355.392857 719.308355 C 374.408036 717.966518 389.188393 718.637436 394.751786 710.83801 C 397.575 707.064094 400.979464 705.135204 404.799107 704.88361 C 404.882143 704.88361 404.882143 704.88361 404.882143 704.88361 Z M 297.01875 743.88074 C 297.101786 743.88074 297.101786 743.88074 297.101786 743.88074 C 297.101786 743.88074 297.184821 743.88074 297.184821 743.88074 C 303.578571 743.209821 370.505357 770.382015 374.408036 776.336416 C 378.39375 782.458546 396.163393 869.845663 389.188393 878.316008 C 382.130357 886.786352 367.35 883.180166 362.450893 877.561224 C 357.46875 871.942283 349.746429 799.483099 345.511607 793.19324 C 341.276786 786.819515 297.01875 772.059311 292.783929 765.769452 C 288.549107 759.395727 292.036607 745.306441 297.01875 743.964605 C 297.01875 743.964605 297.01875 743.88074 297.01875 743.88074 Z M 492.733929 748.07398 C 492.733929 748.07398 492.733929 748.07398 492.816964 748.07398 C 492.816964 748.07398 492.9 748.07398 492.9 748.07398 C 492.9 748.07398 492.983036 748.07398 492.983036 748.07398 C 493.066071 748.07398 493.066071 748.07398 493.149107 748.07398 C 493.149107 748.07398 493.232143 748.07398 493.232143 748.07398 C 493.315179 748.07398 493.315179 748.07398 493.398214 748.07398 C 493.48125 748.07398 493.48125 748.07398 493.564286 748.07398 C 493.979464 748.07398 494.228571 748.157844 494.394643 748.157844 C 499.29375 749.583546 500.788393 765.769452 496.553571 772.059311 C 492.31875 778.433036 454.288393 789 450.053571 795.28986 C 445.901786 801.663584 431.121429 869.845663 426.222321 875.464605 C 421.240179 881.167411 405.048214 884.605867 397.990179 876.219388 C 391.015179 867.749043 409.78125 782.458546 419.164286 774.910714 C 427.135714 768.453125 481.690179 749.415816 492.733929 748.07398 Z M 492.733929 748.07398 " transform="matrix(0.047043,0,0,0.0465779,0,0)"/>
</g>
</svg>
