<?xml version="1.0" encoding="UTF-8"?>
<svg xmlns="http://www.w3.org/2000/svg" xmlns:xlink="http://www.w3.org/1999/xlink" width="px" height="50px" viewBox="0 0 35 49" version="1.1">
<g id="surface1">
<path style=" stroke:none;fill-rule:evenodd;fill:rgb(0%,0%,0%);fill-opacity:1;" d="M 4.308594 4.625 C 4.308594 4.625 4.304688 4.625 4.304688 4.625 C 4.070312 4.671875 3.414062 8.703125 3.835938 9.863281 C 4.027344 10.382812 4.433594 10.828125 4.824219 11.160156 C 3.003906 14.394531 4.152344 17.117188 5.617188 18.25 C 7.113281 19.40625 8.285156 20.75 7.347656 22.324219 C 6.410156 23.902344 5.496094 22.945312 5.289062 24.085938 C 5.085938 25.195312 7.257812 27.273438 8.285156 27.191406 C 9.359375 27.105469 8.609375 25.058594 9.546875 25.105469 L 13.105469 34.792969 L 15.257812 34.46875 L 12.460938 25.863281 C 15.511719 26.171875 16.003906 25.34375 17.277344 25.285156 C 18.929688 25.207031 19.921875 25.875 21.710938 25.742188 C 23.496094 25.613281 23.761719 25.15625 25.945312 24.628906 C 28.132812 24.105469 28.460938 24.957031 29.191406 24.695312 C 29.917969 24.433594 30.308594 23.492188 29.324219 20.960938 C 28.328125 18.402344 27.636719 17.910156 26.808594 15.980469 C 25.796875 13.632812 26.664062 12.613281 25.613281 10.148438 C 24.757812 8.128906 24.246094 7.703125 23.871094 7.71875 C 23.871094 7.71875 23.867188 7.71875 23.867188 7.71875 C 23.867188 7.71875 23.863281 7.71875 23.863281 7.71875 C 23.863281 7.71875 23.859375 7.71875 23.859375 7.71875 C 23.777344 7.726562 23.703125 7.753906 23.628906 7.789062 C 23.234375 7.984375 21.976562 8.835938 19.925781 8.96875 C 17.871094 9.097656 16.414062 8.441406 14.296875 8.640625 C 12.179688 8.835938 11.914062 10.015625 9.863281 10.277344 C 8.8125 10.414062 8.039062 10.339844 7.535156 10.238281 C 7.734375 9.59375 7.867188 9.183594 7.675781 8.566406 C 7.453125 7.839844 4.5625 4.605469 4.308594 4.625 Z M 5.195312 7.171875 C 5.945312 7.683594 6.691406 8.566406 6.832031 9.027344 C 6.972656 9.492188 6.550781 10.417969 6.269531 10.554688 C 5.992188 10.695312 4.960938 10.371094 4.726562 9.722656 C 4.492188 9.074219 4.773438 8.515625 5.195312 7.171875 Z M 23.367188 9.191406 C 23.367188 9.191406 23.371094 9.191406 23.371094 9.191406 C 23.375 9.191406 23.375 9.191406 23.375 9.191406 C 23.375 9.191406 23.375 9.191406 23.378906 9.191406 C 23.382812 9.191406 23.382812 9.191406 23.382812 9.191406 C 23.386719 9.191406 23.386719 9.191406 23.390625 9.191406 C 23.597656 9.183594 23.800781 9.253906 23.972656 9.367188 C 24.519531 9.796875 24.554688 10.621094 24.3125 11.222656 C 23.808594 12.171875 22.847656 12.761719 22.175781 13.585938 C 21.886719 13.929688 21.640625 14.449219 21.136719 14.484375 C 20.777344 14.441406 20.804688 13.976562 20.894531 13.726562 C 21.328125 12.53125 21.832031 11.351562 22.351562 10.183594 C 22.527344 9.742188 22.8125 9.210938 23.359375 9.191406 C 23.363281 9.191406 23.363281 9.191406 23.363281 9.191406 C 23.363281 9.191406 23.367188 9.191406 23.367188 9.191406 Z M 8.464844 11.414062 C 8.46875 11.414062 8.46875 11.414062 8.46875 11.414062 C 8.472656 11.414062 8.472656 11.414062 8.476562 11.414062 C 8.476562 11.414062 8.480469 11.414062 8.484375 11.414062 C 8.488281 11.414062 8.492188 11.414062 8.496094 11.414062 C 8.5 11.414062 8.503906 11.414062 8.507812 11.414062 C 8.507812 11.414062 8.511719 11.414062 8.515625 11.414062 C 8.523438 11.414062 8.53125 11.414062 8.535156 11.414062 C 8.777344 11.410156 9.085938 11.460938 9.421875 11.527344 C 10.394531 11.710938 10.261719 12.441406 11.714844 13.226562 C 13.171875 14.015625 14.695312 14.210938 14.296875 14.929688 C 13.902344 15.652344 12.671875 14.960938 10.789062 14.40625 C 9.5625 14.042969 8.53125 13.441406 8.144531 12.375 C 7.890625 11.683594 8.066406 11.449219 8.464844 11.414062 Z M 7.160156 11.992188 L 11.042969 23.902344 L 9.921875 24.320312 L 5.945312 12.410156 Z M 5.335938 12.96875 L 6.972656 17.972656 C 5.242188 16.90625 4.257812 15.839844 5.335938 12.96875 Z M 17.363281 13.453125 C 18.019531 14.613281 20.289062 15.214844 20.453125 16.328125 C 20.617188 17.4375 19.421875 17.832031 19.609375 18.734375 C 19.796875 19.640625 19.914062 19.203125 20.078125 19.964844 C 20.382812 21.378906 17.550781 21.839844 17.457031 20.265625 C 17.398438 19.304688 18.066406 19.292969 17.902344 18.644531 C 17.738281 17.996094 15.746094 17.621094 15.492188 16.71875 C 15.234375 15.816406 16.472656 14.542969 17.363281 13.453125 Z M 21.359375 18.625 C 21.359375 18.625 21.363281 18.625 21.363281 18.625 C 21.367188 18.625 21.367188 18.625 21.367188 18.625 C 21.367188 18.625 21.367188 18.625 21.371094 18.625 C 21.371094 18.625 21.375 18.625 21.375 18.625 C 21.382812 18.625 21.386719 18.625 21.394531 18.625 C 21.40625 18.625 21.417969 18.625 21.429688 18.628906 C 22.164062 18.628906 22.867188 18.933594 23.5625 19.136719 C 24.578125 19.515625 25.644531 19.742188 26.628906 20.179688 C 27.503906 20.566406 28.40625 21.242188 28.511719 22.257812 C 28.511719 22.550781 28.636719 22.960938 28.375 23.183594 C 28.105469 23.300781 27.773438 23.257812 27.492188 23.1875 C 26.707031 22.800781 26.101562 22.136719 25.410156 21.613281 C 24.640625 20.9375 23.722656 20.476562 22.796875 20.054688 C 22.238281 19.753906 21.585938 19.546875 21.15625 19.078125 C 20.992188 18.902344 21.148438 18.652344 21.359375 18.625 Z M 15.777344 18.839844 C 15.78125 18.839844 15.785156 18.839844 15.789062 18.839844 C 15.890625 18.835938 15.96875 18.863281 16.019531 18.929688 C 16.554688 19.65625 15.09375 20.5 14.496094 21.746094 C 13.902344 22.992188 13.570312 25.023438 13.105469 25.023438 C 12.664062 25.023438 12.144531 24.585938 11.851562 23.992188 L 11.652344 23.367188 C 11.617188 23.15625 11.613281 22.941406 11.652344 22.730469 C 11.828125 21.726562 14.8125 18.910156 15.777344 18.839844 Z M 8.285156 22.605469 L 8.75 23.902344 C 8.285156 25.476562 8.328125 26.488281 7.066406 25.476562 C 5.476562 24.203125 6.414062 23.902344 7.015625 23.472656 C 7.488281 23.132812 7.933594 22.859375 8.285156 22.605469 Z M 8.285156 22.605469 "/>
</g>
</svg>
