<?xml version="1.0" encoding="UTF-8"?>
<svg xmlns="http://www.w3.org/2000/svg" xmlns:xlink="http://www.w3.org/1999/xlink" width="px" height="50px" viewBox="0 0 35 49" version="1.1">
<g id="surface1">
<path style=" stroke:none;fill-rule:evenodd;fill:rgb(0%,0%,0%);fill-opacity:1;" d="M 18.945312 4.230469 C 18.425781 4.242188 17.804688 4.484375 17.074219 4.996094 C 13.527344 3.488281 12.882812 7.355469 14.390625 11.585938 C 12.75 13.148438 11.878906 15.738281 11.878906 18.300781 C 11.878906 22.265625 11.152344 23.835938 10.257812 24.460938 C 9.363281 25.082031 8.835938 26.261719 9.660156 27.082031 C 10.480469 27.890625 11.359375 27.605469 12.644531 26.460938 C 12.625 27.105469 12.609375 27.816406 12.609375 27.964844 C 12.609375 28.945312 12.671875 29.734375 11.316406 30.652344 C 9.960938 31.570312 8.636719 31.273438 7.347656 31.503906 C 6.054688 31.730469 5.921875 33.402344 6.152344 34.125 C 6.386719 34.84375 4.996094 37.074219 4.53125 37.894531 C 4.070312 38.710938 4.664062 39.269531 5.292969 39.269531 C 5.679688 39.269531 5.855469 39.628906 5.558594 40.382812 C 5.261719 41.136719 5.691406 41.757812 7.941406 42.019531 C 10.113281 42.273438 12.839844 42.25 16.378906 41.070312 C 19.226562 42.019531 25.941406 42.414062 27.863281 41.824219 C 25.679688 39.660156 20.019531 37.140625 14.859375 36.875 C 14.859375 36.875 16.445312 35.042969 16.976562 34.878906 C 17.503906 34.714844 20.847656 36.023438 23.925781 37.726562 C 27 39.433594 29.019531 41.5625 29.417969 41.726562 C 29.816406 41.890625 30.542969 41.921875 31.800781 41.757812 C 31.800781 41.757812 31.800781 41.761719 31.800781 41.761719 C 31.800781 41.761719 31.804688 41.761719 31.804688 41.761719 C 31.804688 41.761719 31.808594 41.761719 31.808594 41.761719 C 31.808594 41.757812 31.808594 41.757812 31.808594 41.757812 C 31.863281 41.6875 31.3125 39.789062 28.757812 37.007812 C 26.109375 34.125 25.84375 34.355469 25.414062 33.796875 C 24.984375 33.238281 26.375 31.601562 27.003906 30.488281 C 27.515625 29.578125 26.550781 29.257812 25.046875 28.867188 C 26.03125 27.570312 26.222656 26.699219 26.058594 24.550781 C 26.765625 24.5 27.269531 24.40625 28.226562 24.230469 C 29.796875 23.9375 29.542969 20.929688 27.898438 19.9375 C 26.945312 19.363281 25.8125 19.445312 25.082031 15.972656 C 24.5 13.195312 22.914062 11.253906 20.628906 10.472656 C 21.335938 7.09375 20.835938 4.230469 18.996094 4.230469 C 18.980469 4.230469 18.964844 4.230469 18.945312 4.230469 Z M 18.699219 5.746094 C 18.710938 5.746094 18.71875 5.746094 18.730469 5.746094 C 19.84375 5.75 19.976562 8.582031 19.621094 10.566406 C 19.148438 13.226562 18.152344 13.710938 18.0625 14.09375 C 17.960938 14.519531 18.210938 16.34375 18.402344 17.125 C 18.988281 17.265625 19.421875 17.789062 19.421875 18.410156 C 19.421875 19.140625 18.824219 19.730469 18.089844 19.730469 C 17.351562 19.730469 16.753906 19.140625 16.753906 18.410156 C 16.753906 17.929688 17.015625 17.507812 17.40625 17.277344 C 17.542969 16.519531 17.4375 14.285156 17.140625 13.84375 C 16.976562 13.597656 15.925781 12.589844 15.230469 10.5 C 14.535156 8.410156 14.226562 4.882812 17.109375 7.027344 C 17.777344 6.136719 18.300781 5.761719 18.699219 5.746094 Z M 20.335938 11.660156 C 21.519531 12.011719 22.542969 12.867188 23.101562 13.964844 C 24.148438 15.773438 23.886719 17.828125 24.660156 19.722656 C 25.121094 20.988281 25.933594 21.449219 27.046875 22.050781 C 27.789062 22.449219 27.605469 23.542969 26.664062 23.15625 C 26.339844 23.023438 26.046875 22.886719 25.777344 22.742188 C 25.347656 21.539062 24.335938 20.425781 23.210938 19.492188 C 23.164062 19.304688 23.121094 19.109375 23.085938 18.914062 C 22.808594 17.304688 22.878906 15.308594 21.871094 13.933594 C 21.425781 13.308594 20.765625 12.859375 20.027344 12.644531 C 20.140625 12.316406 20.246094 11.988281 20.335938 11.660156 Z M 14.941406 12.9375 C 15.09375 13.265625 15.253906 13.589844 15.429688 13.910156 C 15.195312 14.167969 14.996094 14.460938 14.847656 14.785156 C 13.804688 16.773438 13.945312 19.078125 13.894531 21.253906 C 13.847656 22.429688 13.5 24.542969 11.449219 26.148438 C 10.933594 26.550781 10.214844 25.824219 10.996094 25.109375 C 11.917969 24.261719 12.847656 22.210938 12.871094 20.992188 C 12.878906 18.78125 12.851562 16.453125 13.867188 14.429688 C 14.121094 13.859375 14.492188 13.355469 14.941406 12.9375 Z M 19.617188 21.375 C 19.625 21.375 19.632812 21.375 19.640625 21.375 C 19.648438 21.375 19.65625 21.375 19.664062 21.375 C 19.671875 21.375 19.679688 21.375 19.6875 21.375 C 19.703125 21.375 19.71875 21.375 19.734375 21.375 C 20.140625 21.375 20.566406 21.414062 21.003906 21.511719 C 19.296875 22.253906 18.613281 22.648438 18.664062 22.953125 C 18.707031 23.21875 19.890625 23.761719 21.550781 23.964844 L 21.71875 26.457031 C 20.65625 26.652344 19.785156 27.238281 18.921875 28.34375 C 18.910156 28.339844 18.902344 28.332031 18.894531 28.324219 C 16.339844 26.164062 15.652344 23.3125 15.882812 22.855469 C 16.035156 22.550781 17.585938 21.433594 19.617188 21.375 Z M 24.230469 23.953125 C 24.042969 24.910156 23.949219 25.761719 23.890625 26.5 C 23.59375 26.449219 23.3125 26.414062 23.042969 26.398438 C 22.957031 25.667969 22.941406 24.75 22.945312 24.042969 C 23.328125 24.042969 23.71875 24.019531 24.121094 23.96875 C 24.160156 23.960938 24.195312 23.957031 24.230469 23.953125 Z M 13.800781 27.765625 C 13.800781 27.765625 13.800781 27.765625 13.804688 27.765625 C 13.804688 27.765625 13.804688 27.769531 13.804688 27.769531 C 13.804688 27.769531 13.796875 27.769531 13.796875 27.769531 C 13.796875 27.769531 13.800781 27.765625 13.800781 27.765625 Z M 13.804688 27.773438 C 13.890625 27.804688 19.527344 30 19.722656 30.160156 C 19.921875 30.324219 21.90625 34.351562 21.707031 34.714844 C 21.507812 35.074219 20.316406 34.878906 20.152344 34.714844 C 19.988281 34.550781 18.894531 31.042969 18.597656 30.78125 C 18.300781 30.519531 14.292969 29.277344 14.0625 29.078125 C 13.847656 28.894531 13.832031 27.863281 13.804688 27.773438 Z M 21.800781 28.179688 L 21.984375 28.214844 C 21.917969 28.207031 21.847656 28.195312 21.773438 28.183594 Z M 22.398438 28.546875 C 22.402344 28.546875 22.410156 28.546875 22.414062 28.546875 C 22.421875 28.546875 22.429688 28.546875 22.433594 28.546875 C 22.441406 28.546875 22.445312 28.546875 22.453125 28.546875 C 22.457031 28.546875 22.464844 28.546875 22.46875 28.546875 C 22.480469 28.546875 22.492188 28.546875 22.503906 28.546875 C 22.902344 28.542969 23.308594 28.601562 23.703125 28.695312 C 23.609375 29.265625 23.449219 29.652344 23.097656 29.832031 C 22.300781 30.238281 21.367188 29.984375 20.445312 29.449219 C 20.976562 28.824219 21.671875 28.574219 22.398438 28.546875 Z M 24.289062 29.960938 C 25.015625 30.125 25.546875 30.683594 25.546875 30.683594 C 25.546875 30.683594 23.726562 33.304688 23.726562 34.683594 C 22.933594 34.78125 22.269531 34.746094 22.136719 34.777344 C 22.601562 32.15625 23.691406 30.683594 24.289062 29.960938 Z M 9.019531 32.964844 C 9.019531 32.964844 9.023438 32.964844 9.023438 32.964844 C 9.023438 32.964844 9.027344 32.964844 9.027344 32.964844 C 9.027344 32.964844 9.027344 32.964844 9.03125 32.964844 C 9.03125 32.964844 9.035156 32.964844 9.035156 32.964844 C 9.039062 32.964844 9.039062 32.964844 9.042969 32.964844 C 9.046875 32.964844 9.046875 32.964844 9.050781 32.964844 C 9.0625 32.964844 9.074219 32.964844 9.085938 32.964844 C 10.078125 32.957031 11.367188 33.074219 12.175781 33.273438 C 13.175781 33.519531 12.753906 34.042969 12.609375 34.582031 C 12.429688 35.230469 12.804688 37.269531 13.167969 38.582031 C 11.414062 39.238281 8.933594 39.5 6.253906 37.828125 C 6.847656 36.613281 7.910156 34.910156 7.675781 34.253906 C 7.445312 33.601562 7.445312 33.109375 8.273438 33.011719 C 8.480469 32.984375 8.734375 32.972656 9.015625 32.96875 C 9.015625 32.96875 9.015625 32.96875 9.019531 32.96875 C 9.019531 32.96875 9.019531 32.964844 9.019531 32.964844 Z M 24.859375 35.5 C 24.859375 35.5 24.863281 35.5 24.863281 35.5 C 24.867188 35.5 24.867188 35.5 24.867188 35.5 C 24.871094 35.5 24.871094 35.5 24.875 35.5 C 24.875 35.5 24.878906 35.5 24.878906 35.5 C 24.882812 35.5 24.882812 35.5 24.886719 35.5 C 24.886719 35.5 24.890625 35.5 24.890625 35.5 C 24.890625 35.5 24.894531 35.5 24.894531 35.5 C 24.898438 35.5 24.902344 35.5 24.90625 35.5 C 24.921875 35.5 24.9375 35.5 24.949219 35.5 C 25.425781 35.5 25.808594 35.882812 25.808594 36.351562 C 25.808594 36.824219 25.425781 37.203125 24.949219 37.203125 C 24.476562 37.203125 24.089844 36.824219 24.089844 36.351562 C 24.089844 35.914062 24.425781 35.546875 24.859375 35.5 Z M 27.714844 37.894531 C 27.714844 37.890625 27.71875 37.894531 27.71875 37.894531 C 27.722656 37.894531 27.722656 37.894531 27.726562 37.894531 C 27.726562 37.894531 27.730469 37.894531 27.730469 37.894531 C 27.734375 37.890625 27.734375 37.894531 27.734375 37.894531 C 27.738281 37.894531 27.742188 37.894531 27.742188 37.894531 C 27.746094 37.890625 27.75 37.894531 27.753906 37.894531 C 27.757812 37.890625 27.757812 37.894531 27.761719 37.894531 C 27.773438 37.890625 27.785156 37.894531 27.796875 37.894531 C 28.273438 37.894531 28.65625 38.273438 28.65625 38.742188 C 28.65625 39.214844 28.273438 39.597656 27.796875 39.597656 C 27.320312 39.597656 26.9375 39.214844 26.9375 38.742188 C 26.9375 38.300781 27.277344 37.933594 27.714844 37.894531 Z M 27.714844 37.894531 "/>
</g>
</svg>
