<?xml version="1.0" encoding="UTF-8"?>
<svg xmlns="http://www.w3.org/2000/svg" xmlns:xlink="http://www.w3.org/1999/xlink" width="px" height="50px" viewBox="0 0 35 49" version="1.1">
<g id="surface1">
<path style=" stroke:none;fill-rule:evenodd;fill:rgb(0%,0%,0%);fill-opacity:1;" d="M 18.851562 6.28125 C 17.597656 6.300781 16.261719 6.714844 15.222656 7.667969 L 17.324219 9.824219 C 16.992188 10.160156 16.78125 10.613281 16.75 11.113281 C 14.6875 11.445312 12.695312 12.273438 11.53125 12.777344 C 11.296875 12.460938 10.917969 12.253906 10.492188 12.253906 C 9.777344 12.253906 9.199219 12.828125 9.199219 13.53125 C 9.199219 13.851562 9.320312 14.144531 9.515625 14.367188 C 9.023438 15.128906 7.703125 17.199219 7.808594 17.332031 C 7.941406 17.496094 9.023438 17.953125 10.113281 17.890625 C 10.152344 18.792969 10.097656 20.574219 9.597656 22.378906 C 9.035156 24.410156 9.265625 26.246094 10.125 28.867188 C 10.851562 31.082031 10.515625 32.242188 9.535156 33.242188 C 8.410156 33.394531 7.808594 33.390625 6.878906 33.21875 C 5.792969 33.019531 5.464844 33.640625 5.566406 34.421875 C 5.707031 35.488281 5.335938 37.296875 3.976562 39.195312 C 7.300781 40.863281 12.40625 39.847656 12.449219 39.289062 C 12.472656 38.917969 11.984375 36.914062 11.5 35.28125 C 12.324219 34.96875 13.816406 34.421875 14.085938 34.421875 C 14.460938 34.421875 18.109375 35.628906 18.203125 36.089844 C 18.296875 36.554688 18.015625 39.796875 18.203125 40.03125 C 18.390625 40.261719 19.292969 40.285156 19.46875 40.078125 C 19.671875 39.832031 19.429688 36.40625 19.671875 36.035156 C 19.945312 35.617188 22.671875 34.839844 23.046875 34.839844 C 23.316406 34.839844 24.949219 35.15625 25.773438 35.464844 C 25.289062 37.097656 24.703125 39.058594 24.730469 39.429688 C 24.773438 39.984375 29.738281 41.140625 33.0625 39.472656 C 32.3125 37.15625 31.804688 35.992188 31.84375 34.886719 C 31.886719 33.71875 31.714844 33.25 30.628906 33.449219 C 29.535156 33.648438 28.300781 33.578125 26.722656 33.425781 C 25.152344 33.277344 24.707031 32.730469 24.425781 32.546875 C 24.148438 32.363281 23.9375 29.464844 23.9375 29.464844 C 23.9375 29.464844 23.777344 29.546875 23.765625 29.554688 C 25.1875 27.136719 25.652344 26.074219 25.050781 24.765625 C 24.332031 23.199219 24.429688 22.316406 24.949219 19.9375 C 25.238281 18.609375 26.796875 15.976562 26.949219 15.042969 C 27.179688 13.625 27.320312 13.6875 25.949219 13.085938 C 24.894531 12.625 22.929688 11.769531 20.84375 11.375 C 20.847656 11.328125 20.847656 11.285156 20.847656 11.238281 C 20.847656 10.652344 20.59375 10.121094 20.191406 9.75 C 20.804688 9.085938 21.53125 8.28125 22.203125 7.503906 C 21.582031 6.75 20.308594 6.273438 18.917969 6.28125 C 18.90625 6.28125 18.894531 6.28125 18.882812 6.28125 C 18.882812 6.28125 18.878906 6.28125 18.875 6.28125 C 18.871094 6.28125 18.871094 6.28125 18.871094 6.28125 C 18.871094 6.28125 18.871094 6.28125 18.867188 6.28125 C 18.867188 6.28125 18.863281 6.28125 18.863281 6.28125 C 18.863281 6.28125 18.859375 6.28125 18.859375 6.28125 C 18.859375 6.28125 18.855469 6.28125 18.855469 6.28125 C 18.855469 6.28125 18.851562 6.28125 18.851562 6.28125 Z M 18.664062 10.191406 C 18.664062 10.191406 18.667969 10.191406 18.667969 10.191406 C 18.667969 10.191406 18.671875 10.191406 18.671875 10.191406 C 18.671875 10.191406 18.675781 10.191406 18.675781 10.191406 C 18.675781 10.191406 18.679688 10.191406 18.679688 10.191406 C 18.679688 10.191406 18.683594 10.191406 18.683594 10.191406 C 18.6875 10.191406 18.6875 10.191406 18.6875 10.191406 C 18.6875 10.191406 18.691406 10.191406 18.691406 10.191406 C 18.691406 10.191406 18.695312 10.191406 18.695312 10.191406 C 18.699219 10.191406 18.699219 10.191406 18.699219 10.191406 C 18.699219 10.191406 18.703125 10.191406 18.703125 10.191406 C 18.707031 10.1875 18.714844 10.191406 18.71875 10.191406 C 18.722656 10.1875 18.730469 10.191406 18.738281 10.191406 C 18.746094 10.1875 18.753906 10.191406 18.761719 10.191406 C 19.328125 10.191406 19.789062 10.644531 19.789062 11.207031 C 19.789062 11.765625 19.328125 12.222656 18.761719 12.222656 C 18.195312 12.222656 17.738281 11.765625 17.738281 11.207031 C 17.738281 10.679688 18.144531 10.242188 18.664062 10.191406 Z M 16.867188 12.402344 C 16.871094 12.402344 16.871094 12.402344 16.875 12.402344 C 16.875 12.402344 16.878906 12.402344 16.878906 12.402344 C 16.878906 12.402344 16.882812 12.402344 16.882812 12.402344 C 16.882812 12.402344 16.886719 12.402344 16.886719 12.402344 C 16.886719 12.402344 16.890625 12.402344 16.890625 12.402344 C 16.890625 12.402344 16.894531 12.402344 16.894531 12.402344 C 16.894531 12.402344 16.898438 12.402344 16.898438 12.402344 C 16.898438 12.402344 16.898438 12.402344 16.902344 12.402344 C 16.902344 12.402344 16.90625 12.402344 16.90625 12.402344 C 16.914062 12.402344 16.921875 12.402344 16.929688 12.402344 C 17.363281 12.394531 17.445312 12.746094 17.207031 13.074219 C 16.941406 13.433594 16.480469 13.925781 16.183594 14.121094 C 15.882812 14.316406 14.816406 14.398438 14.097656 14.546875 C 13.386719 14.695312 12.507812 15.007812 12.046875 15.136719 C 11.582031 15.269531 11.550781 14.710938 11.550781 14.253906 C 11.550781 13.785156 12.144531 13.566406 13.304688 13.203125 C 14.460938 12.84375 16.214844 12.515625 16.777344 12.417969 C 16.808594 12.414062 16.839844 12.40625 16.867188 12.402344 Z M 20.523438 12.40625 C 20.527344 12.40625 20.527344 12.40625 20.527344 12.40625 C 20.527344 12.40625 20.53125 12.40625 20.53125 12.40625 C 20.535156 12.40625 20.535156 12.40625 20.535156 12.40625 C 20.535156 12.40625 20.535156 12.40625 20.539062 12.40625 C 20.539062 12.40625 20.539062 12.40625 20.542969 12.40625 C 20.542969 12.40625 20.546875 12.40625 20.546875 12.40625 C 20.550781 12.40625 20.554688 12.40625 20.558594 12.40625 C 20.566406 12.40625 20.574219 12.40625 20.582031 12.40625 C 20.621094 12.40625 20.664062 12.410156 20.707031 12.417969 C 21.269531 12.515625 22.957031 12.910156 24.113281 13.269531 C 25.273438 13.628906 26.234375 14.113281 26.234375 14.582031 C 26.234375 15.367188 26.035156 15.792969 25.503906 15.59375 C 25.054688 15.429688 24.097656 15.023438 23.386719 14.875 C 22.667969 14.726562 21.535156 14.515625 21.234375 14.320312 C 20.9375 14.121094 20.441406 13.628906 20.175781 13.269531 C 19.945312 12.953125 20.097656 12.449219 20.523438 12.40625 Z M 18.742188 14.554688 C 18.746094 14.554688 18.746094 14.554688 18.746094 14.554688 C 18.746094 14.554688 18.75 14.554688 18.75 14.554688 C 18.921875 14.546875 19.097656 14.671875 19.160156 14.910156 C 19.316406 15.484375 19.519531 16.0625 20.023438 16.613281 C 20.648438 17.300781 20.234375 18.816406 18.664062 18.804688 C 17.09375 18.796875 16.660156 17.273438 17.539062 16.515625 C 18.152344 15.980469 18.226562 15.460938 18.367188 14.941406 C 18.433594 14.691406 18.585938 14.570312 18.738281 14.554688 C 18.738281 14.554688 18.742188 14.554688 18.742188 14.554688 Z M 10.292969 14.777344 C 10.292969 14.777344 10.296875 14.777344 10.296875 14.777344 C 10.40625 14.832031 11.257812 16.394531 11.085938 16.675781 C 10.886719 17.003906 9.761719 17.039062 9.53125 16.777344 C 9.332031 16.546875 10.292969 14.777344 10.292969 14.777344 Z M 25.230469 16.6875 C 25.234375 16.6875 25.234375 16.6875 25.238281 16.6875 C 25.277344 16.683594 25.316406 16.691406 25.347656 16.710938 C 25.78125 16.945312 23.5625 21.78125 19.0625 21.789062 C 13.992188 21.796875 11.753906 18.300781 12.179688 17.859375 C 12.835938 17.171875 14.0625 20.128906 18.695312 20.117188 C 22.640625 20.105469 24.480469 16.746094 25.230469 16.6875 Z M 11.753906 20.328125 C 12.589844 22.089844 12.660156 22.929688 12.339844 24.304688 C 12.03125 25.628906 11.667969 26.804688 13.558594 29.691406 C 13.464844 30.589844 13.277344 32.136719 13.078125 32.269531 C 12.875 32.40625 12.253906 32.683594 11.324219 32.917969 C 11.4375 32.578125 11.5625 32.132812 11.683594 31.554688 C 12.046875 29.785156 11.550781 29.390625 10.855469 26.902344 C 10.367188 25.148438 10.957031 22.71875 11.753906 20.328125 Z M 18.15625 22.726562 C 18.164062 22.726562 18.167969 22.726562 18.171875 22.726562 C 18.183594 22.726562 18.191406 22.726562 18.199219 22.726562 C 18.214844 22.726562 18.226562 22.726562 18.242188 22.726562 C 18.429688 22.722656 18.558594 22.738281 18.59375 22.769531 C 18.597656 22.769531 18.597656 22.769531 18.597656 22.769531 C 18.597656 22.769531 18.597656 22.769531 18.597656 22.773438 C 18.832031 23 18.894531 25.03125 18.664062 25.328125 C 18.433594 25.621094 13.511719 24.738281 13.566406 23.851562 C 13.601562 23.332031 16.929688 22.765625 18.15625 22.726562 Z M 14.132812 25.425781 L 15.253906 25.785156 L 15.125 26.671875 L 18.609375 26.730469 C 18.695312 26.957031 18.746094 27.253906 18.730469 27.652344 C 18.71875 27.949219 18.699219 28.152344 18.660156 28.308594 C 18.222656 28.863281 16.871094 28.570312 16.84375 28.898438 C 16.828125 29.097656 18.003906 29.75 18.863281 29.683594 C 19.722656 29.621094 20.648438 29.257812 20.683594 28.929688 C 20.695312 28.800781 19.882812 28.761719 19.589844 28.308594 C 19.589844 28.066406 19.589844 28.019531 19.589844 27.71875 C 19.589844 27.214844 19.507812 27.113281 19.699219 26.746094 L 23.03125 26.800781 C 23.296875 27.328125 23.097656 28.308594 22.964844 28.703125 C 22.832031 29.097656 22.207031 29.523438 21.445312 30.113281 C 20.683594 30.703125 19.722656 31.519531 18.796875 31.519531 C 17.871094 31.519531 17.074219 30.765625 16.546875 30.40625 C 16.121094 30.117188 14.695312 29.683594 14.394531 28.898438 C 13.964844 27.773438 14.132812 25.425781 14.132812 25.425781 Z M 19.078125 32.175781 C 19.078125 32.175781 19.082031 32.175781 19.085938 32.175781 C 19.089844 32.175781 19.09375 32.175781 19.097656 32.175781 C 19.101562 32.175781 19.105469 32.175781 19.105469 32.175781 C 19.109375 32.175781 19.113281 32.175781 19.117188 32.175781 C 19.121094 32.175781 19.125 32.175781 19.128906 32.175781 C 19.132812 32.175781 19.132812 32.175781 19.136719 32.175781 C 19.140625 32.175781 19.144531 32.175781 19.148438 32.175781 C 19.15625 32.175781 19.160156 32.175781 19.167969 32.175781 C 19.179688 32.175781 19.1875 32.175781 19.199219 32.175781 C 19.21875 32.175781 19.234375 32.175781 19.253906 32.175781 C 19.496094 32.175781 19.699219 32.203125 19.753906 32.273438 C 19.921875 32.46875 19.160156 34.882812 18.863281 34.894531 C 18.5 34.910156 17.9375 32.601562 18.101562 32.40625 C 18.195312 32.292969 18.660156 32.199219 19.078125 32.175781 Z M 7.289062 34.097656 C 7.292969 34.097656 7.292969 34.097656 7.292969 34.097656 C 7.292969 34.097656 7.292969 34.097656 7.296875 34.097656 C 7.300781 34.097656 7.304688 34.097656 7.308594 34.097656 C 7.640625 34.089844 8.148438 34.238281 8.65625 34.238281 C 9.359375 34.238281 10.203125 34.054688 10.480469 34.238281 C 10.761719 34.421875 11.371094 38.175781 11.183594 38.410156 C 10.996094 38.640625 10.808594 38.824219 8.890625 38.871094 C 6.972656 38.917969 5.847656 38.734375 5.660156 38.457031 C 5.472656 38.175781 5.894531 37.421875 6.269531 36.371094 C 6.703125 35.152344 6.785156 34.421875 7.019531 34.191406 C 7.078125 34.132812 7.171875 34.105469 7.285156 34.101562 C 7.285156 34.101562 7.289062 34.101562 7.289062 34.101562 C 7.289062 34.101562 7.289062 34.097656 7.289062 34.097656 Z M 29.328125 34.265625 C 29.332031 34.265625 29.339844 34.265625 29.347656 34.265625 C 29.351562 34.265625 29.359375 34.265625 29.367188 34.265625 C 29.371094 34.265625 29.378906 34.265625 29.382812 34.265625 C 29.390625 34.265625 29.398438 34.265625 29.40625 34.265625 C 29.414062 34.265625 29.417969 34.265625 29.425781 34.265625 C 29.433594 34.265625 29.441406 34.265625 29.449219 34.265625 C 29.457031 34.265625 29.460938 34.265625 29.46875 34.265625 C 29.476562 34.265625 29.484375 34.265625 29.492188 34.265625 C 29.5 34.265625 29.507812 34.265625 29.515625 34.265625 C 29.523438 34.265625 29.535156 34.265625 29.542969 34.265625 C 29.550781 34.265625 29.558594 34.265625 29.566406 34.265625 C 29.574219 34.265625 29.585938 34.265625 29.59375 34.265625 C 29.601562 34.265625 29.609375 34.265625 29.621094 34.265625 C 29.640625 34.265625 29.65625 34.265625 29.675781 34.265625 C 30.136719 34.261719 30.546875 34.285156 30.6875 34.421875 C 30.921875 34.65625 31.003906 35.335938 31.4375 36.554688 C 31.8125 37.609375 31.953125 38.457031 31.765625 38.734375 C 31.578125 39.011719 30.457031 39.195312 28.535156 39.148438 C 26.617188 39.101562 26.007812 38.871094 25.820312 38.640625 C 25.632812 38.410156 26.617188 34.703125 26.898438 34.515625 C 27.179688 34.332031 28.066406 34.285156 28.769531 34.285156 C 28.945312 34.285156 29.136719 34.273438 29.328125 34.265625 Z M 13.867188 35.441406 C 13.277344 35.503906 12.820312 36.003906 12.820312 36.601562 C 12.820312 37.242188 13.34375 37.757812 13.992188 37.757812 C 14.636719 37.757812 15.160156 37.242188 15.160156 36.601562 C 15.160156 35.960938 14.636719 35.441406 13.992188 35.441406 C 13.988281 35.441406 13.988281 35.441406 13.984375 35.441406 C 13.972656 35.441406 13.964844 35.441406 13.953125 35.441406 C 13.949219 35.441406 13.945312 35.441406 13.941406 35.441406 C 13.933594 35.441406 13.929688 35.441406 13.925781 35.441406 C 13.925781 35.441406 13.921875 35.441406 13.921875 35.441406 C 13.921875 35.441406 13.921875 35.441406 13.917969 35.441406 C 13.914062 35.441406 13.914062 35.441406 13.910156 35.441406 C 13.90625 35.441406 13.90625 35.441406 13.90625 35.441406 C 13.90625 35.441406 13.902344 35.441406 13.902344 35.441406 C 13.898438 35.441406 13.898438 35.441406 13.898438 35.441406 C 13.898438 35.441406 13.894531 35.441406 13.894531 35.441406 C 13.894531 35.441406 13.890625 35.441406 13.890625 35.441406 C 13.890625 35.441406 13.886719 35.441406 13.886719 35.441406 C 13.886719 35.441406 13.882812 35.441406 13.882812 35.441406 C 13.878906 35.441406 13.878906 35.441406 13.878906 35.441406 C 13.878906 35.441406 13.875 35.441406 13.875 35.441406 C 13.875 35.441406 13.871094 35.441406 13.871094 35.441406 C 13.871094 35.441406 13.867188 35.441406 13.867188 35.441406 Z M 22.992188 35.765625 C 22.40625 35.828125 21.949219 36.328125 21.949219 36.925781 C 21.949219 37.566406 22.472656 38.085938 23.117188 38.085938 C 23.761719 38.085938 24.289062 37.566406 24.289062 36.925781 C 24.289062 36.285156 23.761719 35.765625 23.117188 35.765625 C 23.109375 35.765625 23.101562 35.765625 23.09375 35.765625 C 23.089844 35.765625 23.082031 35.765625 23.074219 35.765625 C 23.070312 35.765625 23.0625 35.765625 23.058594 35.765625 C 23.054688 35.765625 23.054688 35.765625 23.054688 35.765625 C 23.054688 35.765625 23.050781 35.765625 23.050781 35.765625 C 23.046875 35.765625 23.046875 35.765625 23.046875 35.765625 C 23.046875 35.765625 23.042969 35.765625 23.042969 35.765625 C 23.042969 35.765625 23.039062 35.765625 23.039062 35.765625 C 23.039062 35.765625 23.035156 35.765625 23.035156 35.765625 C 23.035156 35.765625 23.03125 35.765625 23.03125 35.765625 C 23.027344 35.765625 23.027344 35.765625 23.027344 35.765625 C 23.027344 35.765625 23.023438 35.765625 23.023438 35.765625 C 23.023438 35.765625 23.019531 35.765625 23.019531 35.765625 C 23.019531 35.765625 23.015625 35.765625 23.015625 35.765625 C 23.015625 35.765625 23.011719 35.765625 23.011719 35.765625 C 23.011719 35.765625 23.011719 35.765625 23.007812 35.765625 C 23.003906 35.765625 23.003906 35.765625 23 35.765625 C 22.996094 35.765625 22.996094 35.765625 22.992188 35.765625 Z M 22.992188 35.765625 "/>
</g>
</svg>
