<?xml version="1.0" encoding="UTF-8"?>
<svg xmlns="http://www.w3.org/2000/svg" xmlns:xlink="http://www.w3.org/1999/xlink" width="px" height="50px" viewBox="0 0 35 49" version="1.1">
<g id="surface1">
<path style="fill-rule:evenodd;fill:rgb(0%,0%,0%);fill-opacity:1;stroke-width:1;stroke-linecap:butt;stroke-linejoin:miter;stroke:rgb(0%,0%,0%);stroke-opacity:1;stroke-miterlimit:4;" d="M 556.25625 106.172832 C 555.508929 106.256696 554.844643 106.256696 554.097321 106.256696 C 537.573214 106.67602 524.702679 114.643176 514.489286 128.313138 C 480.1125 117.662309 445.486607 112.798151 412.6875 112.882015 C 412.10625 112.882015 411.525 112.882015 410.94375 112.882015 C 410.694643 112.882015 410.3625 112.882015 410.113393 112.882015 C 409.78125 112.882015 409.449107 112.882015 409.2 112.882015 C 408.950893 112.882015 408.61875 112.882015 408.286607 112.882015 C 408.0375 112.882015 407.705357 112.882015 407.45625 112.882015 C 334.301786 114.307717 271.277679 140.389668 242.713393 181.902742 C 189.736607 258.97449 218.965179 313.905931 253.674107 330.091837 C 275.014286 340.071747 327.24375 335.291454 359.79375 301.661671 C 361.039286 314.157526 357.966964 328.91773 351.324107 345.439094 C 333.05625 354.831952 317.94375 365.566645 307.398214 374.875638 C 283.899107 395.841837 266.79375 420.749681 246.45 445.238202 C 244.789286 444.315689 243.128571 443.477041 241.716964 442.554528 C 225.774107 432.574617 208.917857 442.554528 203.935714 460.41773 C 201.361607 469.810587 202.275 479.035714 207.008036 485.409439 C 174.95625 511.323661 149.215179 511.575255 148.21875 519.123087 C 147.222321 527.090242 156.771429 552.836735 199.95 562.90051 C 206.011607 564.326212 212.571429 564.745536 219.629464 564.577806 C 204.433929 576.905931 184.007143 595.272321 184.007143 604.665179 C 184.007143 610.200255 188.325 619.425383 193.805357 628.985969 C 182.844643 637.288584 172.133036 649.784439 172.133036 661.357781 C 172.133036 673.014987 182.346429 687.607462 196.296429 693.561862 C 184.920536 712.515306 178.775893 723.166135 178.111607 729.036671 C 177.115179 737.003827 202.939286 821.539541 200.946429 901.127232 C 297.433929 885.192921 419.828571 865.316964 509.341071 857.349809 C 504.192857 792.941645 519.388393 743.377551 527.442857 722.327487 C 568.213393 722.579082 626.670536 706.896365 645.934821 665.55102 C 583.325893 641.649554 589.96875 579.841199 641.7 501.259885 C 684.297321 436.516263 719.421429 310.970663 655.483929 220.396684 C 658.971429 216.203444 662.04375 212.261798 664.534821 208.739477 C 686.954464 177.122449 680.975893 160.433355 659.552679 138.125319 C 637.465179 115.0625 602.424107 105.921237 558.913393 106.172832 C 558.498214 106.172832 558.166071 106.172832 557.750893 106.172832 C 557.584821 106.172832 557.41875 106.172832 557.252679 106.172832 C 557.169643 106.172832 557.003571 106.172832 556.920536 106.172832 C 556.754464 106.172832 556.671429 106.172832 556.505357 106.172832 C 556.422321 106.172832 556.339286 106.172832 556.25625 106.172832 Z M 563.8125 127.558355 C 563.895536 127.558355 563.895536 127.558355 563.895536 127.558355 C 563.978571 127.558355 563.978571 127.558355 564.061607 127.558355 C 564.144643 127.558355 564.144643 127.558355 564.227679 127.558355 C 564.39375 127.558355 564.642857 127.558355 564.891964 127.558355 C 602.922321 127.30676 665.863393 146.176339 652.909821 183.076849 C 648.841071 194.566327 622.435714 230.460459 614.38125 239.433992 C 571.700893 286.817602 553.183929 295.287946 509.091964 338.813776 C 489.080357 356.341518 488.25 385.442602 474.549107 407.079719 C 470.148214 420.414222 448.974107 421.420599 442.995536 408.924745 C 438.096429 394.164541 448.060714 379.320472 459.021429 370.095344 C 472.141071 362.547513 475.877679 343.426339 477.953571 328.75 C 490.159821 273.734694 496.138393 221.151467 514.821429 167.645727 C 520.633929 149.279337 532.674107 131.248406 553.682143 128.313138 C 556.671429 127.893814 559.992857 127.642219 563.563393 127.642219 C 563.646429 127.642219 563.729464 127.558355 563.8125 127.558355 Z M 424.561607 189.618304 C 424.727679 189.618304 424.89375 189.618304 425.142857 189.618304 C 425.308929 189.618304 425.475 189.618304 425.641071 189.618304 C 425.807143 189.618304 425.973214 189.618304 426.139286 189.618304 C 426.305357 189.618304 426.554464 189.618304 426.720536 189.618304 C 426.886607 189.618304 427.052679 189.618304 427.21875 189.618304 C 427.384821 189.618304 427.550893 189.618304 427.8 189.618304 C 428.464286 189.618304 429.211607 189.618304 429.958929 189.618304 C 441.500893 189.618304 464.252679 194.985651 486.423214 202.030293 C 483.849107 214.190689 481.607143 227.189732 479.53125 240.608099 C 473.469643 279.772959 468.653571 305.938776 465.415179 322.544005 C 433.861607 318.266901 402.557143 324.305166 375.4875 334.704401 C 382.213393 316.757334 390.101786 269.541454 383.957143 246.5625 C 318.358929 270.380102 329.319643 232.640944 343.269643 217.71301 C 351.822321 208.487883 380.386607 190.96014 424.561607 189.618304 Z M 600.265179 277.676339 C 616.041964 300.823023 627.916071 332.523916 629.742857 377.89477 C 631.901786 431.819834 606.409821 486.583546 590.383929 530.696429 C 589.885714 519.206952 589.470536 507.382015 588.972321 495.22162 C 585.650893 417.143495 567.964286 372.695153 527.442857 345.942283 C 544.05 330.343431 572.780357 304.177615 600.265179 277.676339 Z M 442.165179 343.007015 C 442.165179 343.007015 442.248214 343.007015 442.248214 343.007015 C 442.248214 343.007015 442.248214 343.007015 442.33125 343.007015 C 442.33125 343.007015 442.414286 343.007015 442.414286 343.007015 C 442.497321 343.007015 442.497321 343.007015 442.580357 343.007015 C 442.746429 343.007015 442.9125 343.007015 443.078571 343.007015 C 448.808036 342.923151 454.620536 343.510204 460.516071 344.852041 C 454.703571 353.993304 430.457143 360.450893 423.814286 397.770727 C 418.832143 425.613839 451.63125 443.477041 474.549107 432.574617 C 490.990179 424.691327 502.283036 389.971301 508.842857 371.101722 C 524.204464 385.778061 534.500893 404.81537 534.334821 424.691327 C 533.753571 479.622768 515.983929 513.252551 503.860714 568.687181 C 495.141964 609.026148 524.038393 664.963967 603.586607 679.053253 C 578.260714 699.767857 552.519643 707.986607 521.215179 699.767857 C 462.924107 684.504464 448.725 623.618622 437.68125 597.033482 C 425.973214 564.577806 395.166964 542.102041 362.284821 534.554209 C 323.175 524.154974 282.4875 533.715561 243.377679 539.753827 C 221.373214 543.695472 195.383036 544.617985 177.696429 528.851403 C 188.075893 523.484056 201.776786 514.091199 211.242857 506.124043 C 216.058929 502.098533 220.542857 497.905293 224.860714 493.795918 C 227.019643 493.795918 229.344643 493.628189 231.752679 493.29273 C 256.663393 489.267219 298.015179 489.686543 332.225893 496.227997 C 374.325 504.279018 394.917857 508.220663 418.832143 525.077487 C 442.663393 542.018176 489.4125 540.005421 487.502679 499.24713 C 485.509821 457.482462 455.616964 449.515306 428.796429 457.482462 C 401.892857 465.365753 378.061607 472.410395 334.301786 467.378508 C 304.824107 464.107781 280.411607 458.488839 262.641964 452.115115 C 284.397321 426.033163 305.239286 399.699617 336.377679 376.13361 C 368.927679 351.47736 418.250893 343.09088 442.082143 343.007015 C 442.082143 343.007015 442.165179 343.007015 442.165179 343.007015 Z M 358.133036 556.526786 C 365.108036 558.287946 372.083036 560.720026 379.058036 563.906888 C 390.101786 568.938776 398.322321 575.731824 404.633036 583.615115 L 345.760714 676.621173 C 288.715179 697.587372 291.040179 669.995855 281.574107 641.481824 C 273.685714 617.831952 240.139286 615.483737 220.127679 617.915816 C 216.80625 611.206633 214.564286 605.419962 214.896429 602.736288 C 215.560714 596.781888 244.041964 573.802934 263.555357 558.70727 C 267.125893 558.120217 270.696429 557.449298 274.35 556.862245 L 278.501786 582.776467 Z M 427.301786 672.427934 C 441.002679 687.691327 460.599107 709.244579 470.563393 720.063138 C 413.600893 725.514349 290.458929 745.97736 245.702679 757.886161 C 228.43125 762.498724 212.903571 755.873406 202.939286 745.97736 C 194.220536 737.255421 205.347321 723.25 224.860714 694.652105 C 235.074107 693.226403 241.633929 693.310268 245.702679 709.160714 C 250.850893 728.701212 299.094643 750.00287 342.35625 691.632972 Z M 492.484821 735.997449 C 492.816964 735.997449 493.066071 735.997449 493.315179 735.997449 C 493.647321 735.997449 493.896429 735.997449 494.228571 735.997449 C 495.640179 735.997449 497.051786 735.997449 498.380357 735.997449 C 496.636607 753.189732 491.488393 769.794962 491.488393 769.794962 C 491.488393 769.794962 325.333929 795.709184 300.423214 801.663584 C 275.595536 807.617985 276.591964 817.597895 262.641964 873.28412 L 221.871429 879.23852 C 216.889286 854.414541 242.713393 791.683673 255.666964 776.75574 C 268.288393 762.24713 419.911607 737.171556 492.484821 735.997449 Z M 492.484821 735.997449 " transform="matrix(0.047043,0,0,0.0465779,0,0)"/>
</g>
</svg>
