<?xml version="1.0" encoding="UTF-8"?>
<svg xmlns="http://www.w3.org/2000/svg" xmlns:xlink="http://www.w3.org/1999/xlink" width="px" height="50px" viewBox="0 0 35 49" version="1.1">
<g id="surface1">
<path style=" stroke:none;fill-rule:evenodd;fill:rgb(0%,0%,0%);fill-opacity:1;" d="M 20.042969 6.941406 C 20.042969 6.941406 20.039062 6.941406 20.039062 6.941406 C 17.566406 6.980469 15.128906 8.351562 13.996094 9.894531 C 13.253906 10.914062 12.925781 13.011719 13.679688 15.351562 L 11.160156 18.9375 C 10.8125 18.195312 9.816406 17.722656 8.703125 17.839844 C 7.382812 17.980469 6.398438 18.894531 6.503906 19.882812 C 6.550781 20.335938 6.816406 20.722656 7.21875 21 L 7.964844 30.652344 C 6.296875 32.472656 4.632812 36.828125 4.632812 36.828125 C 4.632812 36.828125 3.804688 36.46875 3.410156 36.632812 C 3.011719 36.796875 2.566406 40.597656 2.515625 41.023438 C 2.449219 41.546875 4.738281 43.65625 8.207031 44.070312 C 11.863281 44.507812 14.925781 42.429688 20.085938 42.429688 C 25.085938 42.429688 26.40625 42.824219 30.445312 43.511719 C 31.039062 42.921875 31.304688 40.433594 30.941406 37.449219 C 30.941406 37.449219 31.96875 37.351562 32.960938 36.796875 C 32.960938 36.796875 31.601562 33.355469 31.371094 32.667969 C 31.140625 31.980469 31.472656 30.734375 30.910156 30.308594 C 30.34375 29.882812 27.167969 30.964844 25.84375 30.898438 C 24.523438 30.832031 24.71875 29.847656 24.6875 28.242188 C 24.65625 26.734375 24.417969 26.0625 25.4375 25.117188 C 27.664062 26.234375 29.605469 27.125 29.785156 26.933594 C 30.203125 26.476562 27.699219 20.773438 26.640625 18.023438 C 26.640625 18.023438 30.742188 19.265625 33.027344 16.972656 C 33.027344 16.972656 31.007812 16.1875 28.429688 14.449219 C 28.519531 14.429688 31.460938 13.738281 32.925781 10.257812 C 32.925781 10.257812 29.980469 11.042969 26.242188 10.386719 C 26.242188 10.386719 27.796875 9.664062 28.328125 8.125 C 26.902344 8.15625 24.71875 7.929688 21.742188 7.144531 C 21.210938 7.003906 20.664062 6.9375 20.121094 6.941406 C 20.105469 6.941406 20.09375 6.941406 20.078125 6.941406 C 20.074219 6.941406 20.074219 6.941406 20.070312 6.941406 C 20.070312 6.941406 20.066406 6.941406 20.066406 6.941406 C 20.066406 6.941406 20.066406 6.941406 20.0625 6.941406 C 20.058594 6.941406 20.058594 6.941406 20.054688 6.941406 C 20.054688 6.941406 20.050781 6.941406 20.050781 6.941406 C 20.050781 6.941406 20.050781 6.941406 20.046875 6.941406 C 20.046875 6.941406 20.042969 6.941406 20.042969 6.941406 Z M 20.09375 7.964844 C 22.207031 8.195312 23.886719 8.914062 26.007812 9.109375 C 25.09375 10.019531 24.539062 10.234375 23.78125 10.96875 C 26.527344 11.558594 27.378906 11.660156 30.242188 11.835938 C 28.824219 13.058594 28.195312 13.65625 26.417969 14.335938 C 28.125 15.570312 28.378906 16.011719 30.253906 16.988281 C 28.574219 17.503906 26.78125 17.132812 25.15625 16.601562 C 25.152344 16.601562 25.152344 16.601562 25.152344 16.601562 C 25.152344 16.601562 25.148438 16.601562 25.148438 16.601562 C 25.148438 16.601562 25.144531 16.601562 25.144531 16.605469 C 25.117188 16.6875 25.511719 17.746094 26.058594 19.15625 C 24.574219 18.375 22.628906 17.242188 21.542969 16.1875 L 22.171875 20.3125 C 22.171875 20.3125 20.054688 18.742188 18.464844 16.285156 L 18.585938 20.753906 C 16.808594 19.484375 15.316406 17.722656 14.546875 15.730469 C 13.984375 14.210938 13.984375 12.234375 14.710938 10.71875 C 15.882812 9 17.964844 8.050781 20.023438 7.96875 L 20.046875 7.96875 Z M 13.996094 16.578125 C 14.230469 17.167969 14.429688 17.367188 15.058594 18.117188 L 11.449219 22.933594 L 9.132812 23.261719 C 9.128906 23.191406 12.84375 18.144531 13.996094 16.578125 Z M 24.390625 19.953125 L 26.242188 20.574219 L 27.699219 24.539062 L 25.480469 23.523438 Z M 18.445312 22.460938 C 18.089844 26.195312 17.257812 26.964844 16.105469 26.316406 C 15.8125 25.707031 15.394531 25.527344 14.78125 25.546875 C 14.722656 25.546875 14.65625 25.550781 14.59375 25.558594 C 14.121094 25.597656 13.710938 25.589844 13.351562 25.640625 C 13.304688 25.585938 13.257812 25.523438 13.203125 25.457031 C 12.910156 25.078125 12.957031 25.0625 14.097656 23.484375 L 16.511719 24.050781 L 16.695312 22.792969 Z M 12.890625 23.519531 C 12.644531 23.90625 12.339844 24.386719 12.078125 24.769531 C 11.648438 25.410156 11.804688 25.761719 12.164062 26.398438 C 11.734375 27.074219 10.867188 28.441406 12.179688 28.667969 C 12.300781 28.691406 12.414062 28.707031 12.527344 28.726562 C 12.5 29.25 12.84375 30.425781 13.601562 30.636719 C 14.429688 30.863281 13.46875 32.046875 12.90625 32.011719 C 12.222656 31.972656 12.242188 31.488281 11.714844 31.226562 C 11.296875 31.015625 10.878906 31.28125 10.507812 30.6875 L 10.15625 24.039062 Z M 23.726562 26.082031 L 23.761719 27.785156 C 23.761719 27.785156 19.390625 28.441406 19.027344 28.769531 C 18.664062 29.09375 17.40625 32.109375 17.40625 32.109375 L 15.585938 31.355469 C 15.585938 31.355469 16.976562 27.917969 17.375 27.589844 C 17.769531 27.261719 23.726562 26.082031 23.726562 26.082031 Z M 14.011719 26.371094 C 14.015625 26.371094 14.019531 26.371094 14.019531 26.371094 C 14.023438 26.371094 14.027344 26.371094 14.03125 26.371094 C 14.035156 26.371094 14.039062 26.371094 14.042969 26.371094 C 14.046875 26.371094 14.046875 26.371094 14.050781 26.371094 C 14.054688 26.371094 14.058594 26.371094 14.0625 26.371094 C 14.066406 26.371094 14.070312 26.371094 14.074219 26.371094 C 14.074219 26.371094 14.078125 26.371094 14.082031 26.371094 C 14.085938 26.371094 14.089844 26.371094 14.09375 26.371094 C 14.101562 26.371094 14.105469 26.371094 14.113281 26.371094 C 14.125 26.371094 14.136719 26.371094 14.144531 26.371094 C 14.453125 26.367188 14.765625 26.433594 15.058594 26.566406 C 15.753906 26.878906 16.023438 29.605469 15.371094 29.195312 C 14.464844 28.621094 14.015625 28.210938 12.78125 27.921875 C 12.160156 27.777344 12.636719 27.15625 12.921875 26.832031 C 13.214844 26.554688 13.601562 26.398438 14.011719 26.371094 Z M 29.972656 31.816406 C 29.972656 31.816406 29.976562 31.816406 29.976562 31.816406 C 29.976562 31.816406 29.980469 31.816406 29.980469 31.816406 C 30.542969 34.304688 31.371094 36.207031 31.371094 36.207031 C 28.589844 37.058594 25.28125 36.5 25.28125 36.5 C 25.644531 34.042969 25.648438 32.042969 25.648438 32.042969 C 27.855469 32.136719 29.824219 31.84375 29.972656 31.816406 Z M 10.433594 31.972656 C 10.4375 31.972656 10.441406 31.972656 10.445312 31.972656 C 10.449219 31.972656 10.453125 31.972656 10.460938 31.972656 C 10.464844 31.972656 10.46875 31.972656 10.472656 31.972656 C 10.476562 31.972656 10.480469 31.972656 10.484375 31.972656 C 10.785156 31.964844 11.039062 32.015625 11.21875 32.144531 C 12.078125 32.765625 12.144531 34.761719 11.480469 36.367188 C 10.820312 37.972656 8.140625 38.992188 8.140625 38.992188 L 5.425781 37.222656 C 6.617188 34.402344 6.816406 33.519531 7.414062 32.996094 C 7.601562 32.828125 9.292969 32.019531 10.433594 31.972656 Z M 15.125 32.109375 C 15.125 32.109375 15.128906 32.109375 15.128906 32.109375 C 15.128906 32.109375 15.132812 32.109375 15.132812 32.109375 C 15.132812 32.109375 15.136719 32.109375 15.136719 32.109375 C 15.6875 32.074219 19.886719 34.105469 24.125 37.710938 C 24.125 37.710938 23.660156 39.648438 22.402344 41.382812 C 17.902344 37.289062 13.269531 35.617188 13.003906 35.15625 C 12.742188 34.699219 12.941406 33.550781 13.238281 32.996094 C 13.535156 32.4375 14.628906 32.175781 15.125 32.109375 Z M 14.996094 32.996094 C 14.441406 33.027344 13.996094 33.484375 13.996094 34.042969 C 13.996094 34.621094 14.472656 35.09375 15.058594 35.09375 C 15.640625 35.09375 16.117188 34.621094 16.117188 34.042969 C 16.117188 33.464844 15.640625 32.996094 15.058594 32.996094 C 15.042969 32.996094 15.03125 32.996094 15.015625 32.996094 C 15.011719 32.996094 15.007812 32.996094 15.003906 32.996094 C 15 32.996094 15 32.996094 14.996094 32.996094 Z M 11.714844 37.972656 C 13.402344 40.203125 10.722656 41.351562 9.464844 39.84375 C 10.488281 39.253906 11.714844 37.972656 11.714844 37.972656 Z M 11.714844 37.972656 "/>
</g>
</svg>
