<?xml version="1.0" encoding="UTF-8"?>
<svg xmlns="http://www.w3.org/2000/svg" xmlns:xlink="http://www.w3.org/1999/xlink" width="px" height="50px" viewBox="0 0 35 49" version="1.1">
<g id="surface1">
<path style=" stroke:none;fill-rule:evenodd;fill:rgb(0%,0%,0%);fill-opacity:1;" d="M 18.851562 5.425781 C 18.847656 5.425781 18.84375 5.425781 18.839844 5.425781 C 18.816406 5.425781 18.796875 5.425781 18.773438 5.425781 C 18.761719 5.425781 18.753906 5.425781 18.742188 5.425781 C 18.730469 5.425781 18.71875 5.425781 18.707031 5.425781 C 18.699219 5.425781 18.6875 5.425781 18.675781 5.425781 C 15.941406 5.492188 13.269531 6.894531 11.691406 9.089844 C 11.324219 9.605469 11.042969 10.175781 10.738281 10.730469 C 10.652344 10.695312 10.558594 10.675781 10.457031 10.675781 C 10.042969 10.675781 9.707031 11.007812 9.707031 11.417969 C 9.707031 11.574219 9.757812 11.71875 9.839844 11.839844 C 9.464844 12.09375 9.054688 12.308594 8.707031 12.601562 C 7.933594 13.179688 6.65625 13.730469 6.148438 14.558594 C 6 14.914062 6.242188 15.371094 6.648438 15.390625 C 7.488281 15.589844 8.828125 15.46875 9.683594 15.523438 C 10.199219 15.527344 10.726562 15.542969 11.246094 15.585938 C 11.109375 15.726562 10.976562 15.867188 10.847656 16.007812 C 10.359375 16.582031 9.726562 17.125 9.570312 17.890625 C 9.542969 18.273438 9.648438 18.636719 9.789062 18.988281 C 9.703125 19.101562 9.605469 19.257812 9.480469 19.46875 C 9.011719 20.253906 9.339844 21.132812 10.230469 21.550781 C 10.3125 21.589844 10.414062 21.628906 10.539062 21.664062 C 10.292969 22.320312 9.976562 23.09375 10.363281 23.757812 C 10.714844 24.382812 11.398438 24.675781 12.101562 24.753906 C 12.015625 25.785156 11.734375 29.128906 11.695312 29.609375 C 11.648438 30.164062 11.554688 30.628906 11.226562 31.136719 C 11.191406 31.195312 11.113281 31.34375 10.980469 31.539062 C 10.851562 31.730469 10.585938 31.695312 10.042969 31.707031 C 8.921875 31.730469 8.636719 32.992188 9.074219 33.605469 C 9.300781 33.925781 9.414062 34.152344 9.339844 34.308594 C 9.269531 34.460938 8.449219 35.828125 8.039062 36.523438 C 7.890625 36.726562 7.703125 36.621094 7.136719 36.636719 C 5.714844 36.664062 5.496094 38.933594 6.863281 39.421875 C 7.316406 39.582031 7.542969 39.199219 7.652344 38.976562 C 7.746094 38.78125 11.996094 31.554688 12.160156 31.277344 C 12.488281 30.71875 12.675781 30.117188 12.769531 29.515625 C 12.839844 29.054688 13.023438 26.085938 13.105469 24.726562 C 13.480469 24.648438 13.808594 24.464844 14.101562 24.226562 C 16.382812 23.492188 21.296875 22.507812 22.753906 22.597656 C 22.753906 23.152344 23.125 23.847656 22.84375 23.847656 C 20.878906 24.078125 14.839844 25 14.703125 25.609375 C 14.609375 26.027344 14.28125 28.621094 14.5625 28.992188 C 14.726562 29.207031 16.761719 28.34375 19.429688 27.925781 C 22.097656 27.507812 23.546875 27.324219 23.546875 27.324219 C 23.546875 27.324219 23.875 28.066406 23.6875 28.390625 C 19.851562 29.175781 14.1875 30.289062 14.046875 30.472656 C 13.910156 30.660156 8.289062 40.175781 8.292969 40.25 C 14.234375 38.398438 16.855469 40.34375 21.535156 39.183594 C 26.214844 38.027344 29.164062 35.523438 29.023438 35.109375 C 28.882812 34.691406 24.8125 27.695312 24.71875 27.183594 C 24.617188 26.636719 23.351562 22.53125 24.203125 21.4375 C 24.660156 20.851562 26.082031 20.996094 27.097656 21.171875 C 27.601562 21.191406 28.246094 20.957031 28.324219 20.402344 C 28.410156 19.09375 27.316406 18.011719 27.484375 16.691406 C 27.609375 15.925781 27.800781 15.160156 27.886719 14.382812 C 28.117188 12.761719 28.050781 11.023438 27.21875 9.570312 C 26.152344 7.625 24.144531 6.300781 21.992188 5.800781 C 20.980469 5.539062 19.933594 5.417969 18.890625 5.425781 C 18.882812 5.425781 18.871094 5.425781 18.863281 5.425781 C 18.863281 5.425781 18.859375 5.425781 18.859375 5.425781 C 18.859375 5.425781 18.855469 5.425781 18.855469 5.425781 C 18.851562 5.425781 18.851562 5.425781 18.851562 5.425781 Z M 18.832031 6.171875 C 18.832031 6.171875 18.835938 6.171875 18.835938 6.171875 C 18.835938 6.171875 18.835938 6.171875 18.839844 6.171875 C 18.839844 6.171875 18.839844 6.171875 18.84375 6.171875 C 18.851562 6.167969 18.859375 6.171875 18.867188 6.171875 C 19.894531 6.164062 20.921875 6.28125 21.914062 6.546875 C 23.753906 6.992188 25.730469 8.277344 26.308594 9.320312 C 26.875 10.347656 26.753906 11.453125 25.949219 11.742188 C 24.027344 12.433594 23.183594 9.792969 20.285156 10.074219 C 17.429688 10.351562 15.980469 11.878906 14.203125 13.59375 C 14.203125 13.59375 14.203125 13.597656 14.203125 13.597656 C 14.203125 13.601562 14.203125 13.601562 14.203125 13.601562 C 14.292969 13.699219 16.753906 13.949219 19.394531 14.941406 C 22.050781 15.9375 21.886719 17.976562 26.925781 18.171875 C 27.148438 18.828125 27.496094 19.445312 27.570312 20.144531 C 27.648438 20.390625 27.320312 20.429688 27.152344 20.425781 C 26.160156 20.261719 25.160156 20.160156 24.152344 20.113281 C 22.808594 19.96875 21.730469 19.855469 20.378906 19.757812 C 19.421875 19.730469 18.414062 19.320312 17.664062 18.707031 C 16.820312 18.101562 16.304688 17.269531 15.609375 16.53125 C 14.417969 15.316406 12.632812 14.921875 10.976562 14.820312 C 9.792969 14.710938 8.601562 14.855469 7.425781 14.742188 C 7.894531 14.167969 8.472656 13.695312 9.070312 13.261719 C 9.585938 12.832031 10.222656 12.554688 10.71875 12.113281 C 10.71875 12.113281 10.722656 12.113281 10.722656 12.113281 C 10.722656 12.113281 10.722656 12.109375 10.722656 12.109375 C 11 12.007812 11.195312 11.75 11.207031 11.441406 C 11.53125 10.878906 11.800781 10.273438 12.167969 9.726562 C 13.59375 7.582031 16.152344 6.222656 18.746094 6.171875 C 18.75 6.171875 18.753906 6.171875 18.757812 6.171875 C 18.757812 6.171875 18.761719 6.171875 18.761719 6.171875 C 18.761719 6.171875 18.765625 6.171875 18.765625 6.171875 C 18.765625 6.171875 18.765625 6.171875 18.769531 6.171875 C 18.769531 6.171875 18.769531 6.171875 18.773438 6.171875 C 18.777344 6.171875 18.78125 6.171875 18.78125 6.171875 C 18.792969 6.171875 18.808594 6.171875 18.820312 6.171875 C 18.824219 6.171875 18.828125 6.171875 18.832031 6.171875 Z M 13.730469 11.066406 C 13.328125 11.082031 13.011719 11.40625 13.011719 11.808594 C 13.011719 12.21875 13.34375 12.550781 13.757812 12.550781 C 14.171875 12.550781 14.507812 12.21875 14.507812 11.808594 C 14.507812 11.398438 14.171875 11.066406 13.757812 11.066406 C 13.75 11.066406 13.738281 11.066406 13.730469 11.066406 Z M 16.605469 11.835938 C 16.605469 11.835938 16.605469 11.835938 16.609375 11.835938 C 16.609375 11.835938 16.613281 11.835938 16.613281 11.835938 C 16.613281 11.835938 16.617188 11.835938 16.617188 11.835938 C 16.617188 11.835938 16.621094 11.835938 16.621094 11.835938 C 16.625 11.835938 16.628906 11.835938 16.632812 11.835938 C 16.636719 11.835938 16.636719 11.835938 16.636719 11.835938 C 16.636719 11.835938 16.640625 11.835938 16.640625 11.835938 C 16.640625 11.835938 16.644531 11.835938 16.644531 11.835938 C 16.65625 11.835938 16.667969 11.835938 16.679688 11.835938 C 17.09375 11.835938 17.429688 12.167969 17.429688 12.578125 C 17.429688 12.984375 17.09375 13.316406 16.679688 13.316406 C 16.269531 13.316406 15.933594 12.984375 15.933594 12.578125 C 15.933594 12.195312 16.226562 11.875 16.605469 11.835938 Z M 20.296875 12.902344 C 20.296875 12.902344 20.300781 12.902344 20.300781 12.902344 C 20.304688 12.902344 20.304688 12.902344 20.304688 12.902344 C 20.304688 12.902344 20.308594 12.902344 20.308594 12.902344 C 20.308594 12.902344 20.3125 12.902344 20.3125 12.902344 C 20.320312 12.898438 20.324219 12.902344 20.328125 12.902344 C 20.332031 12.902344 20.332031 12.902344 20.335938 12.902344 C 20.339844 12.902344 20.339844 12.902344 20.34375 12.902344 C 20.355469 12.898438 20.367188 12.902344 20.378906 12.902344 C 20.792969 12.902344 21.128906 13.230469 21.128906 13.640625 C 21.128906 14.050781 20.792969 14.382812 20.378906 14.382812 C 19.964844 14.382812 19.628906 14.050781 19.628906 13.640625 C 19.628906 13.261719 19.921875 12.941406 20.296875 12.902344 Z M 23.523438 14.660156 C 23.523438 14.660156 23.527344 14.660156 23.527344 14.660156 C 23.539062 14.660156 23.550781 14.660156 23.5625 14.660156 C 23.976562 14.660156 24.308594 14.992188 24.308594 15.402344 C 24.308594 15.8125 23.976562 16.144531 23.5625 16.144531 C 23.148438 16.144531 22.8125 15.8125 22.8125 15.402344 C 22.8125 15.015625 23.113281 14.695312 23.496094 14.660156 C 23.496094 14.660156 23.5 14.660156 23.5 14.660156 C 23.503906 14.660156 23.503906 14.660156 23.507812 14.660156 C 23.507812 14.660156 23.511719 14.660156 23.511719 14.660156 C 23.511719 14.660156 23.515625 14.660156 23.515625 14.660156 C 23.519531 14.660156 23.519531 14.660156 23.519531 14.660156 C 23.519531 14.660156 23.519531 14.660156 23.523438 14.660156 Z M 12.03125 15.835938 L 12.582031 16.886719 L 14.578125 16.628906 C 14.625 16.660156 14.675781 16.691406 14.71875 16.726562 C 15.609375 17.421875 16.054688 18.585938 16.929688 19.289062 C 16.960938 19.320312 16.992188 19.347656 17.023438 19.375 C 16.285156 20.414062 15.523438 21.433594 14.734375 22.4375 C 14.214844 23.042969 13.726562 23.824219 12.886719 24.003906 C 12.25 24.058594 11.476562 24.019531 11.0625 23.460938 C 10.738281 22.921875 11.125 22.339844 11.292969 21.804688 C 12.683594 21.949219 14.6875 21.574219 14.300781 19.09375 C 13.410156 20.300781 11.960938 20.394531 11.679688 18.769531 C 11.679688 18.769531 10.976562 18.769531 10.511719 18.722656 C 10.503906 18.722656 10.496094 18.722656 10.488281 18.722656 C 10.394531 18.476562 10.324219 18.21875 10.324219 17.953125 C 10.546875 17.390625 11.003906 16.957031 11.402344 16.511719 C 11.566406 16.332031 11.851562 16.007812 12.03125 15.835938 Z M 18.25 20.40625 C 18.703125 20.925781 19.15625 21.445312 19.609375 21.964844 C 18.667969 22.140625 17.726562 22.320312 16.789062 22.5 C 17.253906 21.835938 17.71875 21.171875 18.183594 20.507812 C 18.207031 20.472656 18.230469 20.441406 18.25 20.40625 Z M 19.988281 30.105469 C 19.988281 30.105469 19.992188 30.105469 19.996094 30.105469 C 20 30.105469 20.003906 30.105469 20.003906 30.105469 C 20.007812 30.105469 20.011719 30.105469 20.015625 30.105469 C 20.019531 30.105469 20.023438 30.105469 20.027344 30.105469 C 20.046875 30.101562 20.066406 30.105469 20.085938 30.105469 C 20.9375 30.105469 21.628906 30.789062 21.628906 31.632812 C 21.628906 32.476562 20.9375 33.164062 20.085938 33.164062 C 19.230469 33.164062 18.542969 32.476562 18.542969 31.632812 C 18.542969 30.820312 19.179688 30.152344 19.988281 30.105469 Z M 22.238281 31.355469 C 22.265625 31.375 23.175781 32.011719 23.269531 32.511719 C 23.359375 33.023438 23.40625 34.550781 23.6875 34.738281 C 23.96875 34.921875 25 35.015625 24.90625 35.847656 C 24.8125 36.683594 24.34375 37.054688 23.78125 36.914062 C 23.21875 36.777344 22.378906 36.683594 20.273438 36.914062 C 18.167969 37.144531 16.339844 37.980469 15.546875 38.074219 C 14.75 38.164062 14.28125 37.238281 14.609375 36.5 C 14.9375 35.757812 15.636719 36.082031 15.777344 35.664062 C 15.917969 35.246094 16.109375 33.070312 17.417969 31.910156 C 17.839844 32.789062 18.496094 33.253906 18.496094 33.253906 C 18.496094 33.253906 17.136719 35.710938 17.464844 35.988281 C 17.792969 36.265625 21.863281 35.757812 22.097656 35.339844 C 22.332031 34.921875 21.535156 33.117188 21.535156 33.117188 C 21.535156 33.117188 21.957031 32.699219 22.144531 32.28125 C 22.324219 31.878906 22.242188 31.386719 22.238281 31.355469 Z M 22.238281 31.355469 "/>
</g>
</svg>
