<?xml version="1.0" encoding="UTF-8"?>
<svg xmlns="http://www.w3.org/2000/svg" xmlns:xlink="http://www.w3.org/1999/xlink" width="px" height="50px" viewBox="0 0 35 49" version="1.1">
<g id="surface1">
<path style=" stroke:none;fill-rule:evenodd;fill:rgb(0%,0%,0%);fill-opacity:1;" d="M 14.722656 3.738281 C 13.746094 3.78125 13.316406 4.3125 13.222656 5.960938 C 13.109375 5.964844 12.996094 5.972656 12.878906 5.980469 C 11.488281 6.058594 10.992188 6.734375 10.597656 7.914062 C 10.199219 9.09375 9.207031 14.5625 9.273438 14.628906 C 8.808594 17.445312 9.351562 17.625 10.894531 17.839844 C 11.257812 17.890625 11.65625 17.921875 12.070312 17.941406 C 11.5625 18.683594 11.054688 19.421875 10.585938 20.1875 C 10.183594 20.375 9.546875 20.453125 8.765625 19.949219 C 8.765625 20.003906 9.070312 22.253906 10.578125 22.273438 C 10.359375 23.007812 10.175781 23.808594 10.582031 24.5 C 10.855469 24.914062 11.296875 25.105469 11.769531 25.195312 L 11.730469 26.933594 C 9.949219 27.097656 8.167969 27.367188 6.429688 27.792969 C 5.582031 28.09375 4.832031 28.9375 4.972656 29.878906 C 5.128906 30.507812 5.851562 30.792969 6.457031 30.746094 C 7.277344 30.792969 8.097656 30.792969 8.914062 30.773438 C 8.574219 31.203125 8.585938 31.828125 8.875 32.28125 C 9.195312 33.003906 9.519531 33.738281 9.941406 34.402344 C 9.683594 35.242188 9.429688 36.074219 9.175781 36.910156 C 12.53125 37.867188 16.164062 37.792969 19.507812 36.804688 C 19.882812 36.953125 20.253906 37.105469 20.628906 37.257812 C 20.984375 37.0625 21.289062 36.816406 21.546875 36.527344 C 24.117188 37.527344 25.765625 38.003906 26.253906 37.601562 C 26.847656 37.109375 27.941406 36.324219 28.039062 34.390625 C 28.140625 32.457031 27.414062 30.460938 25.988281 29.871094 C 25.605469 29.710938 25.085938 29.472656 24.515625 29.214844 C 25.46875 28.332031 26.167969 27.675781 26.535156 25.707031 C 26.902344 23.742188 26.074219 22.074219 24.96875 20.335938 C 25.457031 18.21875 25.800781 14.960938 25.488281 13.15625 C 25.15625 11.253906 24.90625 7.890625 23.304688 7.488281 C 20.496094 6.777344 18.59375 6.375 17.171875 6.15625 C 17.148438 4.359375 16.648438 3.894531 15.332031 3.765625 C 15.152344 3.75 14.984375 3.738281 14.832031 3.738281 C 14.820312 3.738281 14.804688 3.738281 14.792969 3.738281 C 14.785156 3.738281 14.777344 3.738281 14.769531 3.738281 C 14.765625 3.738281 14.761719 3.738281 14.757812 3.738281 C 14.753906 3.738281 14.75 3.738281 14.746094 3.738281 C 14.742188 3.738281 14.738281 3.738281 14.734375 3.738281 C 14.730469 3.738281 14.726562 3.738281 14.722656 3.738281 Z M 16.546875 6.914062 C 17.171875 7.066406 17.792969 7.21875 18.417969 7.371094 C 18.507812 7.933594 18.628906 8.738281 18.738281 9.515625 C 18.929688 10.921875 18.792969 12.074219 19.234375 13.4375 C 19.664062 14.300781 20.769531 15.078125 21.757812 14.816406 C 22.648438 14.464844 22.890625 13.472656 22.914062 12.597656 C 22.945312 11.878906 22.179688 9.464844 21.640625 8.15625 C 22.226562 8.285156 22.84375 8.324219 23.355469 8.660156 C 24.46875 10.058594 24.84375 11.984375 24.476562 13.71875 C 24.253906 15.15625 23.140625 16.519531 21.640625 16.722656 C 19.65625 16.960938 17.746094 15.464844 17.277344 13.59375 C 17.222656 13.117188 17.179688 12.644531 17.140625 12.167969 C 16.054688 14.027344 14.671875 14.144531 13.644531 14.144531 C 12.523438 14.144531 10.230469 12.847656 10.746094 10.714844 C 12.214844 11.230469 14.085938 13.050781 17.058594 11.054688 C 16.957031 9.714844 16.855469 8.371094 16.566406 7.054688 C 16.558594 7.007812 16.550781 6.960938 16.546875 6.914062 Z M 20.113281 17.742188 C 20.117188 17.742188 20.121094 17.742188 20.128906 17.742188 C 20.132812 17.742188 20.136719 17.742188 20.144531 17.742188 C 20.925781 17.722656 21.828125 18.46875 21.3125 19.257812 C 20.828125 20.007812 19.863281 21.621094 18.929688 22.59375 C 18.871094 22.65625 18.804688 22.71875 18.734375 22.785156 C 19.414062 23.261719 20.109375 23.71875 20.589844 24.027344 C 19.96875 24.359375 18.3125 24.425781 17.121094 24.433594 C 17.707031 23.683594 18.316406 23.175781 18.734375 22.785156 C 18.4375 22.578125 18.148438 22.371094 17.878906 22.164062 C 17.832031 22.132812 17.789062 22.097656 17.746094 22.0625 C 17.746094 22.0625 17.746094 22.058594 17.742188 22.058594 C 17.742188 22.058594 17.742188 22.058594 17.742188 22.054688 C 17.738281 22.054688 17.738281 22.054688 17.738281 22.054688 C 17.738281 22.054688 17.738281 22.050781 17.738281 22.050781 C 17.738281 22.050781 17.738281 22.050781 17.734375 22.050781 C 17.734375 22.050781 17.730469 22.046875 17.730469 22.046875 C 17.730469 22.046875 17.726562 22.042969 17.726562 22.042969 C 17.722656 22.039062 17.714844 22.035156 17.710938 22.03125 C 17.707031 22.027344 17.707031 22.023438 17.703125 22.023438 C 17.703125 22.023438 17.699219 22.019531 17.699219 22.019531 C 17.699219 22.019531 17.699219 22.019531 17.699219 22.015625 C 17.699219 22.015625 17.695312 22.015625 17.695312 22.015625 C 17.691406 22.011719 17.691406 22.011719 17.6875 22.007812 C 17.6875 22.007812 17.6875 22.007812 17.683594 22.003906 C 17.683594 22.003906 17.683594 22.003906 17.679688 22 C 17.679688 22 17.675781 22 17.675781 22 C 17.675781 21.996094 17.675781 21.996094 17.675781 21.996094 C 17.675781 21.996094 17.671875 21.996094 17.671875 21.992188 C 17.671875 21.992188 17.667969 21.992188 17.667969 21.992188 C 17.667969 21.992188 17.667969 21.988281 17.667969 21.988281 C 17.667969 21.988281 17.664062 21.988281 17.664062 21.988281 C 17.664062 21.988281 17.664062 21.984375 17.664062 21.984375 C 17.664062 21.984375 17.660156 21.984375 17.660156 21.980469 C 17.660156 21.980469 17.660156 21.980469 17.65625 21.980469 C 17.65625 21.980469 17.65625 21.976562 17.65625 21.976562 C 17.65625 21.976562 17.652344 21.976562 17.652344 21.976562 C 17.652344 21.976562 17.648438 21.972656 17.648438 21.972656 C 17.648438 21.96875 17.644531 21.96875 17.644531 21.964844 C 17.644531 21.964844 17.640625 21.964844 17.640625 21.964844 C 17.640625 21.964844 17.636719 21.960938 17.636719 21.960938 C 17.636719 21.957031 17.632812 21.957031 17.632812 21.957031 C 17.632812 21.957031 17.628906 21.953125 17.628906 21.953125 C 17.628906 21.953125 17.628906 21.949219 17.628906 21.949219 C 17.625 21.949219 17.625 21.949219 17.625 21.949219 C 17.621094 21.945312 17.621094 21.945312 17.621094 21.941406 C 17.621094 21.941406 17.617188 21.941406 17.617188 21.941406 C 17.613281 21.941406 17.613281 21.9375 17.613281 21.9375 C 17.613281 21.933594 17.609375 21.933594 17.609375 21.933594 C 17.609375 21.933594 17.605469 21.933594 17.605469 21.929688 C 17.605469 21.929688 17.605469 21.925781 17.605469 21.925781 C 17.601562 21.925781 17.601562 21.925781 17.601562 21.925781 C 17.601562 21.925781 17.597656 21.925781 17.597656 21.925781 C 17.597656 21.925781 17.597656 21.921875 17.597656 21.921875 C 17.589844 21.914062 17.582031 21.90625 17.574219 21.894531 C 17.570312 21.894531 17.570312 21.894531 17.570312 21.890625 C 17.566406 21.890625 17.566406 21.890625 17.566406 21.890625 C 17.5625 21.886719 17.5625 21.886719 17.5625 21.886719 C 17.558594 21.882812 17.558594 21.882812 17.558594 21.878906 C 17.554688 21.878906 17.554688 21.878906 17.554688 21.878906 C 17.550781 21.875 17.550781 21.875 17.550781 21.871094 C 17.550781 21.871094 17.546875 21.871094 17.546875 21.867188 C 17.542969 21.867188 17.542969 21.863281 17.539062 21.863281 C 17.535156 21.855469 17.53125 21.851562 17.523438 21.84375 C 17.523438 21.84375 17.519531 21.839844 17.519531 21.839844 C 17.519531 21.839844 17.515625 21.835938 17.515625 21.835938 C 17.515625 21.835938 17.511719 21.832031 17.511719 21.832031 C 17.507812 21.828125 17.503906 21.824219 17.5 21.820312 C 17.5 21.816406 17.5 21.816406 17.496094 21.816406 C 17.496094 21.816406 17.496094 21.8125 17.492188 21.8125 C 17.492188 21.808594 17.492188 21.808594 17.492188 21.808594 C 17.484375 21.804688 17.484375 21.796875 17.480469 21.792969 C 17.476562 21.792969 17.476562 21.792969 17.476562 21.792969 C 17.476562 21.789062 17.472656 21.789062 17.472656 21.789062 C 17.472656 21.789062 17.472656 21.785156 17.472656 21.785156 C 17.472656 21.785156 17.46875 21.785156 17.46875 21.78125 C 17.46875 21.78125 17.464844 21.777344 17.464844 21.777344 C 17.464844 21.777344 17.464844 21.777344 17.460938 21.777344 C 17.460938 21.777344 17.460938 21.773438 17.460938 21.773438 C 17.460938 21.773438 17.460938 21.769531 17.457031 21.769531 C 17.457031 21.769531 17.457031 21.765625 17.457031 21.765625 C 17.453125 21.765625 17.453125 21.761719 17.449219 21.761719 C 17.449219 21.761719 17.449219 21.761719 17.449219 21.757812 C 17.449219 21.757812 17.445312 21.753906 17.445312 21.753906 C 17.445312 21.753906 17.441406 21.75 17.441406 21.746094 C 17.4375 21.746094 17.4375 21.742188 17.433594 21.738281 C 17.425781 21.734375 17.421875 21.726562 17.417969 21.722656 C 17.417969 21.722656 17.417969 21.71875 17.417969 21.71875 C 17.417969 21.71875 17.414062 21.714844 17.414062 21.714844 C 17.410156 21.710938 17.402344 21.703125 17.398438 21.699219 C 17.398438 21.699219 17.398438 21.695312 17.398438 21.695312 C 18.460938 20.632812 18.761719 19.222656 19.347656 18.191406 C 19.519531 17.894531 19.804688 17.757812 20.113281 17.742188 Z M 12.953125 17.988281 C 14.140625 18.042969 15.285156 18.117188 15.824219 18.527344 C 16.519531 19.058594 16.554688 20.449219 17.253906 21.496094 C 16.601562 22.195312 15.945312 22.886719 15.226562 23.511719 C 14.570312 24.144531 13.671875 24.546875 12.742188 24.53125 C 12.226562 24.488281 11.589844 24.550781 11.226562 24.109375 C 10.921875 23.476562 11.222656 22.789062 11.410156 22.15625 C 12.296875 22.933594 14.480469 23.058594 14.671875 20.195312 C 14.222656 20.71875 12.535156 21.414062 11.378906 20.339844 C 11.863281 19.542969 12.414062 18.765625 12.953125 17.988281 Z M 24.101562 21.140625 C 24.960938 21.972656 25.375 23.246094 25.414062 24.78125 C 25.453125 26.46875 25.242188 26.800781 23.492188 28.757812 C 22.566406 28.359375 21.644531 27.996094 21.0625 27.90625 C 21.058594 27.40625 21.089844 26.695312 21.199219 25.707031 C 21.339844 24.476562 21.738281 23.527344 22.109375 22.878906 C 22.863281 23.960938 23.382812 25.421875 22.746094 27.285156 C 23.96875 25.871094 24.375 24.914062 23.125 21.867188 C 23.472656 21.53125 23.824219 21.296875 24.101562 21.140625 Z M 13.886719 25.125 C 14.597656 25.960938 14.867188 27.066406 14.894531 27.898438 C 14.191406 27.558594 13.472656 27.21875 12.714844 27.015625 L 12.75 25.277344 C 13.136719 25.28125 13.519531 25.226562 13.886719 25.125 Z M 20.53125 25.214844 L 20.140625 28.125 C 19.5625 28.347656 18.652344 28.613281 17.742188 28.777344 C 17.394531 28.761719 17.050781 28.75 16.707031 28.734375 C 16.292969 28.632812 15.925781 28.417969 15.550781 28.21875 C 15.722656 27.050781 16.074219 26.125 16.492188 25.382812 Z M 12.078125 27.652344 L 12.171875 27.65625 C 13.308594 27.914062 14.34375 28.445312 15.382812 28.972656 C 15.421875 29.003906 15.453125 29.027344 15.464844 29.035156 C 15.464844 29.027344 15.464844 29.023438 15.464844 29.015625 C 15.75 29.160156 16.039062 29.304688 16.324219 29.441406 C 16.328125 29.441406 16.335938 29.441406 16.339844 29.441406 C 16.308594 29.96875 16.230469 30.832031 16.03125 31.746094 C 15.804688 32.789062 15.421875 33.8125 15.203125 34.351562 C 14.527344 34.425781 13.867188 34.671875 13.199219 34.820312 C 12.65625 34.867188 12.128906 35.148438 11.574219 35.066406 C 10.855469 34.679688 10.480469 33.875 10.125 33.167969 C 9.902344 32.582031 9.429688 32.070312 9.425781 31.421875 C 9.574219 30.945312 10.152344 30.835938 10.570312 30.699219 C 10.902344 30.699219 11.085938 30.171875 10.746094 30.035156 C 9.496094 29.953125 8.238281 30.085938 6.984375 30.027344 C 6.570312 29.957031 6.019531 30.125 5.730469 29.757812 C 5.636719 29.207031 6.128906 28.730469 6.605469 28.527344 C 8.394531 28.066406 10.238281 27.816406 12.078125 27.652344 Z M 19.390625 28.839844 C 19.445312 28.839844 19.503906 28.84375 19.558594 28.84375 C 19.503906 28.84375 19.449219 28.839844 19.390625 28.839844 Z M 21.136719 28.894531 C 21.144531 28.894531 21.148438 28.894531 21.15625 28.894531 C 21.148438 28.894531 21.144531 28.894531 21.136719 28.894531 Z M 15.46875 29.039062 Z M 16.933594 29.484375 C 18.566406 29.585938 20.210938 29.59375 21.851562 29.667969 C 22.015625 30.707031 22.039062 31.773438 22.003906 32.828125 C 22.011719 34.128906 21.664062 35.566406 20.582031 36.398438 C 19 35.839844 17.441406 35.15625 15.867188 34.527344 C 16.09375 34.050781 16.484375 33.117188 16.710938 32.039062 C 16.921875 31.035156 16.945312 30.058594 16.933594 29.484375 Z M 23.761719 33.460938 C 23.761719 33.460938 23.765625 33.460938 23.769531 33.460938 C 23.773438 33.460938 23.777344 33.460938 23.78125 33.460938 C 23.878906 33.460938 23.972656 33.476562 24.066406 33.511719 C 24.515625 33.6875 24.691406 34.296875 24.464844 34.867188 C 24.234375 35.441406 23.679688 35.757812 23.230469 35.582031 C 22.78125 35.402344 22.605469 34.796875 22.835938 34.226562 C 23.015625 33.777344 23.390625 33.484375 23.761719 33.460938 Z M 9.960938 34.4375 C 9.964844 34.441406 9.96875 34.445312 9.972656 34.453125 C 9.96875 34.445312 9.964844 34.441406 9.960938 34.4375 Z M 22.578125 34.480469 C 22.578125 34.488281 22.574219 34.5 22.570312 34.507812 C 22.574219 34.5 22.578125 34.488281 22.578125 34.480469 Z M 10.015625 34.523438 C 10.023438 34.53125 10.027344 34.539062 10.03125 34.546875 C 10.027344 34.539062 10.023438 34.53125 10.015625 34.523438 Z M 22.566406 34.535156 C 22.5625 34.542969 22.558594 34.550781 22.558594 34.558594 C 22.558594 34.550781 22.5625 34.542969 22.566406 34.535156 Z M 10.101562 34.652344 C 10.109375 34.660156 10.113281 34.664062 10.121094 34.671875 C 10.113281 34.664062 10.109375 34.660156 10.101562 34.652344 Z M 10.3125 34.933594 C 10.316406 34.941406 10.320312 34.949219 10.328125 34.957031 C 10.320312 34.949219 10.316406 34.941406 10.3125 34.933594 Z M 15.21875 35.070312 C 15.1875 35.078125 15.15625 35.085938 15.125 35.09375 C 15.09375 35.105469 15.0625 35.113281 15.03125 35.121094 C 15.0625 35.113281 15.09375 35.105469 15.125 35.09375 C 15.15625 35.085938 15.1875 35.078125 15.21875 35.070312 Z M 10.425781 35.078125 C 10.433594 35.089844 10.441406 35.101562 10.453125 35.109375 C 10.445312 35.101562 10.433594 35.089844 10.425781 35.078125 Z M 10.515625 35.183594 C 10.519531 35.1875 10.523438 35.191406 10.523438 35.195312 C 10.523438 35.191406 10.519531 35.1875 10.515625 35.183594 Z M 14.757812 35.191406 C 14.726562 35.199219 14.695312 35.210938 14.664062 35.21875 C 14.695312 35.210938 14.726562 35.199219 14.757812 35.191406 Z M 10.539062 35.214844 C 10.546875 35.222656 10.554688 35.230469 10.5625 35.238281 C 10.554688 35.230469 10.546875 35.222656 10.539062 35.214844 Z M 14.523438 35.253906 C 14.492188 35.261719 14.460938 35.269531 14.429688 35.277344 C 14.460938 35.269531 14.492188 35.261719 14.523438 35.253906 Z M 14.105469 35.359375 C 14.074219 35.367188 14.042969 35.375 14.015625 35.378906 C 14.042969 35.375 14.074219 35.367188 14.105469 35.359375 Z M 22.28125 35.371094 C 22.277344 35.375 22.273438 35.382812 22.273438 35.386719 C 22.273438 35.382812 22.277344 35.375 22.28125 35.371094 Z M 10.78125 35.460938 C 10.785156 35.460938 10.789062 35.464844 10.792969 35.464844 C 10.789062 35.464844 10.785156 35.460938 10.78125 35.460938 Z M 10.816406 35.488281 C 10.816406 35.488281 10.820312 35.488281 10.820312 35.492188 C 10.820312 35.488281 10.816406 35.488281 10.816406 35.488281 Z M 10.835938 35.503906 C 10.839844 35.503906 10.839844 35.507812 10.84375 35.507812 C 10.839844 35.507812 10.839844 35.503906 10.835938 35.503906 Z M 10.90625 35.554688 C 10.910156 35.554688 10.914062 35.558594 10.917969 35.5625 C 10.917969 35.5625 10.921875 35.566406 10.925781 35.570312 C 10.921875 35.566406 10.917969 35.5625 10.917969 35.5625 C 10.914062 35.558594 10.910156 35.554688 10.90625 35.554688 Z M 10.929688 35.570312 C 10.933594 35.570312 10.933594 35.574219 10.9375 35.574219 C 10.941406 35.578125 10.941406 35.578125 10.945312 35.582031 C 10.941406 35.578125 10.941406 35.578125 10.9375 35.574219 C 10.933594 35.574219 10.929688 35.570312 10.929688 35.570312 Z M 13.167969 35.578125 C 13.125 35.589844 13.078125 35.601562 13.035156 35.609375 C 13.078125 35.601562 13.125 35.589844 13.167969 35.578125 Z M 11.015625 35.625 C 11.019531 35.625 11.023438 35.628906 11.027344 35.632812 C 11.023438 35.628906 11.019531 35.625 11.015625 35.625 Z M 12.945312 35.628906 C 12.914062 35.636719 12.878906 35.640625 12.847656 35.648438 C 12.878906 35.640625 12.914062 35.636719 12.945312 35.628906 Z M 11.085938 35.660156 C 11.089844 35.664062 11.097656 35.667969 11.101562 35.671875 C 11.09375 35.667969 11.089844 35.664062 11.085938 35.660156 Z M 12.710938 35.679688 C 12.679688 35.6875 12.648438 35.691406 12.617188 35.699219 C 12.648438 35.691406 12.679688 35.6875 12.710938 35.679688 Z M 11.132812 35.6875 C 11.136719 35.6875 11.144531 35.691406 11.148438 35.695312 C 11.144531 35.691406 11.136719 35.6875 11.132812 35.6875 Z M 11.183594 35.710938 C 11.1875 35.714844 11.191406 35.714844 11.195312 35.714844 C 11.191406 35.714844 11.1875 35.714844 11.183594 35.710938 Z M 11.207031 35.722656 C 11.210938 35.722656 11.214844 35.722656 11.21875 35.726562 C 11.214844 35.722656 11.210938 35.722656 11.207031 35.722656 Z M 12.476562 35.726562 C 12.445312 35.734375 12.414062 35.738281 12.382812 35.746094 C 12.414062 35.738281 12.445312 35.734375 12.476562 35.726562 Z M 11.261719 35.742188 C 11.265625 35.746094 11.273438 35.746094 11.277344 35.746094 C 11.273438 35.746094 11.265625 35.746094 11.261719 35.742188 Z M 11.324219 35.765625 C 11.328125 35.765625 11.332031 35.769531 11.335938 35.769531 C 11.332031 35.769531 11.328125 35.765625 11.324219 35.765625 Z M 12.242188 35.773438 C 12.238281 35.773438 12.234375 35.777344 12.230469 35.777344 C 12.234375 35.777344 12.238281 35.773438 12.242188 35.773438 Z M 11.40625 35.789062 C 11.410156 35.789062 11.414062 35.792969 11.417969 35.792969 C 11.414062 35.792969 11.410156 35.789062 11.40625 35.789062 Z M 11.464844 35.804688 C 11.472656 35.808594 11.484375 35.808594 11.492188 35.8125 C 11.484375 35.808594 11.472656 35.808594 11.464844 35.804688 Z M 12.121094 35.808594 C 12.109375 35.8125 12.09375 35.816406 12.082031 35.816406 C 12.09375 35.816406 12.109375 35.8125 12.121094 35.808594 Z M 11.539062 35.820312 C 11.542969 35.824219 11.546875 35.824219 11.554688 35.824219 C 11.546875 35.824219 11.542969 35.824219 11.539062 35.820312 Z M 12.042969 35.824219 C 12.046875 35.824219 12.046875 35.824219 12.050781 35.824219 C 12.046875 35.824219 12.042969 35.824219 12.039062 35.824219 C 12.039062 35.824219 12.042969 35.824219 12.042969 35.824219 Z M 11.566406 35.824219 C 11.570312 35.828125 11.574219 35.828125 11.578125 35.828125 C 11.574219 35.828125 11.570312 35.828125 11.566406 35.824219 Z M 12.015625 35.828125 C 12.019531 35.828125 12.023438 35.828125 12.023438 35.828125 C 12.019531 35.828125 12.015625 35.828125 12.011719 35.832031 C 12.015625 35.832031 12.015625 35.828125 12.015625 35.828125 Z M 11.605469 35.832031 C 11.609375 35.832031 11.613281 35.832031 11.617188 35.832031 C 11.613281 35.832031 11.609375 35.832031 11.605469 35.832031 Z M 12 35.832031 C 12 35.832031 12.003906 35.832031 12.003906 35.832031 C 12 35.832031 11.996094 35.832031 11.992188 35.832031 C 11.996094 35.832031 11.996094 35.832031 12 35.832031 Z M 11.964844 35.835938 C 11.96875 35.835938 11.972656 35.835938 11.972656 35.835938 C 11.96875 35.835938 11.964844 35.835938 11.960938 35.835938 C 11.957031 35.839844 11.949219 35.839844 11.945312 35.839844 C 11.949219 35.839844 11.957031 35.839844 11.960938 35.835938 C 11.960938 35.835938 11.964844 35.835938 11.964844 35.835938 Z M 11.703125 35.84375 C 11.707031 35.84375 11.707031 35.84375 11.714844 35.84375 C 11.710938 35.84375 11.707031 35.84375 11.703125 35.84375 Z M 11.726562 35.84375 C 11.730469 35.84375 11.734375 35.84375 11.738281 35.84375 C 11.734375 35.84375 11.730469 35.84375 11.726562 35.84375 Z M 11.882812 35.84375 C 11.882812 35.84375 11.886719 35.84375 11.886719 35.84375 C 11.882812 35.84375 11.878906 35.84375 11.875 35.84375 C 11.878906 35.84375 11.878906 35.84375 11.882812 35.84375 Z M 11.757812 35.84375 C 11.761719 35.84375 11.765625 35.847656 11.773438 35.847656 C 11.765625 35.847656 11.761719 35.84375 11.757812 35.84375 Z M 11.84375 35.84375 C 11.847656 35.84375 11.847656 35.84375 11.851562 35.84375 C 11.84375 35.84375 11.839844 35.847656 11.835938 35.847656 C 11.839844 35.847656 11.839844 35.84375 11.84375 35.84375 Z M 21.980469 35.945312 C 21.976562 35.953125 21.972656 35.957031 21.96875 35.964844 C 21.972656 35.957031 21.976562 35.953125 21.980469 35.945312 Z M 21.695312 36.351562 C 21.691406 36.359375 21.683594 36.367188 21.679688 36.375 C 21.683594 36.367188 21.6875 36.359375 21.695312 36.351562 Z M 21.652344 36.402344 C 21.648438 36.410156 21.644531 36.417969 21.636719 36.421875 C 21.644531 36.417969 21.648438 36.410156 21.652344 36.402344 Z M 21.652344 36.402344 "/>
</g>
</svg>
