<?xml version="1.0" encoding="UTF-8"?>
<svg xmlns="http://www.w3.org/2000/svg" xmlns:xlink="http://www.w3.org/1999/xlink" width="px" height="50px" viewBox="0 0 35 49" version="1.1">
<g id="surface1">
<path style="fill-rule:evenodd;fill:rgb(0%,0%,0%);fill-opacity:1;stroke-width:1;stroke-linecap:butt;stroke-linejoin:miter;stroke:rgb(0%,0%,0%);stroke-opacity:1;stroke-miterlimit:4;" d="M 472.55625 75.646046 C 472.473214 75.646046 472.390179 75.729911 472.307143 75.729911 C 439.258929 76.652423 416.590179 111.204719 358.548214 112.043367 C 305.239286 112.798151 276.342857 79.503827 236.153571 86.716199 C 216.80625 90.154656 210.910714 99.379783 209.83125 122.358737 C 207.257143 121.855548 204.683036 121.603954 202.275 121.603954 C 176.949107 122.107143 161.00625 150.956633 168.894643 175.445153 C 149.38125 193.895408 129.203571 215.280931 111.849107 235.743941 C 135.846429 267.612564 174.375 287.907844 215.0625 286.817602 C 216.391071 313.235013 217.553571 334.201212 215.477679 349.38074 C 212.986607 367.830995 217.055357 383.513712 233.496429 384.603954 C 234.077679 402.047832 231.835714 414.459821 223.532143 422.259247 C 210.827679 434.251913 199.617857 444.735013 191.895536 453.205357 C 184.173214 461.675702 182.014286 470.816964 191.895536 487.00287 C 192.975 488.847895 193.971429 490.776786 194.884821 492.873406 C 177.779464 507.717474 168.645536 532.28986 169.309821 546.798469 C 169.891071 557.533163 178.360714 569.441964 193.390179 573.970663 C 191.065179 589.485651 191.397321 603.407207 198.20625 613.638712 C 206.592857 626.302296 218.633036 634.017857 247.446429 634.017857 C 251.349107 634.017857 255.002679 634.269452 258.573214 634.688776 C 239.641071 715.953763 219.297321 804.263393 219.297321 804.263393 C 219.297321 804.263393 507.016071 755.705676 507.680357 744.467793 C 508.178571 735.913584 498.546429 654.397003 500.622321 630.495536 C 502.698214 606.929528 508.178571 580.679847 492.31875 581.183036 C 491.986607 581.183036 491.820536 581.266901 491.488393 581.266901 C 491.239286 581.266901 490.824107 581.350765 490.408929 581.350765 C 497.716071 563.906888 506.766964 554.262436 523.872321 533.380102 C 556.25625 494.047513 561.155357 457.398597 547.122321 416.640306 C 546.291964 414.292092 545.378571 412.027742 544.299107 409.763393 C 565.307143 274.908801 508.676786 82.1875 484.513393 76.904018 C 480.610714 76.06537 476.791071 75.646046 473.220536 75.646046 C 473.054464 75.646046 472.888393 75.646046 472.722321 75.646046 C 472.722321 75.646046 472.639286 75.646046 472.639286 75.646046 C 472.55625 75.646046 472.55625 75.646046 472.55625 75.646046 Z M 206.011607 137.957589 C 206.011607 137.957589 206.094643 137.957589 206.177679 137.957589 C 206.177679 137.957589 206.260714 137.957589 206.260714 137.957589 C 206.260714 137.957589 206.260714 137.957589 206.34375 137.957589 C 209.000893 137.873724 211.741071 138.460778 214.564286 139.970344 C 232.915179 149.698661 222.784821 172.006696 207.838393 182.154337 C 209.748214 209.913584 212.7375 233.479592 215.145536 261.154974 C 185.169643 262.83227 157.51875 252.68463 137.091964 231.634566 C 149.796429 217.796875 175.371429 191.966518 188.823214 178.88361 C 181.35 160.34949 191.8125 138.796237 206.011607 137.957589 Z M 494.64375 141.983099 C 494.726786 141.983099 494.726786 141.983099 494.726786 141.983099 C 495.557143 143.408801 502.033929 163.955676 510.171429 191.211735 C 489.4125 212.261798 394.0875 226.686543 331.146429 212.261798 C 317.030357 247.149554 289.960714 289.669005 235.489286 288.998087 C 235.489286 288.998087 234.409821 256.961735 235.489286 239.014668 C 247.446429 233.731186 283.982143 215.113202 301.917857 157.414222 C 335.713393 167.226403 415.925893 180.309311 494.64375 141.983099 Z M 358.797321 362.715242 C 365.191071 362.631378 371.750893 362.799107 378.559821 363.218431 C 372 385.945791 360.873214 421.672194 349.414286 447.586416 C 330.482143 490.525191 309.308036 520.800383 309.308036 520.800383 C 309.308036 520.800383 323.008929 535.560587 340.280357 535.560587 C 357.883929 535.560587 374.740179 525.664541 374.740179 525.664541 C 374.740179 525.664541 383.874107 541.850446 397.242857 548.224171 C 404.217857 551.494898 415.510714 550.48852 428.464286 543.611607 L 470.978571 573.048151 C 469.400893 576.570472 467.823214 580.260523 466.245536 584.286033 C 428.9625 589.317921 359.710714 599.884885 300.091071 612.883929 C 304.824107 594.349809 309.723214 573.719069 309.308036 569.274235 C 257.991964 613.638712 248.110714 610.787309 228.43125 609.361607 C 208.751786 607.935906 208.751786 596.027105 210.827679 584.034439 C 211.159821 582.273278 211.824107 579.33801 212.7375 575.731824 C 234.825 574.809311 267.375 568.938776 284.729464 546.043686 C 269.201786 541.179528 268.5375 532.038265 271.360714 513.671875 C 273.934821 496.898916 258.65625 479.622768 228.348214 480.293686 C 226.355357 480.293686 224.279464 480.461416 222.120536 480.629145 C 219.214286 480.88074 216.391071 481.467793 213.650893 482.306441 C 208.66875 472.829719 208.253571 467.965561 216.474107 458.15338 C 224.196429 449.012117 237.316071 437.019452 245.86875 424.942921 C 250.684821 431.735969 256.746429 439.367666 260.067857 441.296556 C 266.461607 444.735013 305.073214 432.155293 309.308036 429.974809 C 313.542857 427.878189 315.61875 419.407844 315.61875 419.407844 L 254.172321 388.37787 C 254.00625 386.029656 253.840179 383.681441 253.591071 381.333227 C 276.342857 375.378827 313.210714 363.218431 358.797321 362.715242 Z M 397.325893 365.147321 C 399.152679 365.398916 400.979464 365.734375 402.889286 365.985969 C 461.844643 375.630421 508.59375 413.117985 527.442857 430.394133 C 535.414286 451.276467 536.991964 469.055804 523.872321 496.144133 C 511.666071 521.387436 496.221429 533.296237 482.4375 553.256059 L 446.150893 531.199617 C 452.627679 525.412946 459.1875 518.284439 465.498214 509.478635 C 482.769643 485.744898 488.997321 435.845344 465.498214 425.110651 C 445.320536 415.885523 419.496429 423.433355 419.08125 427.878189 C 418.250893 436.683992 416.922321 453.96014 402.889286 475.010204 C 388.773214 496.144133 364.858929 520.045599 332.558036 513.75574 C 359.2125 473.919962 386.365179 404.731505 397.325893 365.147321 Z M 440.172321 446.663903 C 440.255357 446.663903 440.338393 446.663903 440.421429 446.663903 C 440.5875 446.663903 440.670536 446.663903 440.836607 446.663903 C 452.959821 446.412309 469.151786 453.708546 464.750893 475.010204 C 458.523214 505.788584 419.330357 536.14764 401.477679 525.664541 C 391.264286 519.71014 401.394643 500.924426 412.272321 486.080357 C 422.651786 471.907207 427.8 455.385842 428.879464 451.779656 C 429.792857 448.928253 434.442857 446.999362 440.172321 446.663903 Z M 226.189286 500.253508 C 226.272321 500.253508 226.355357 500.253508 226.438393 500.253508 C 226.604464 500.253508 226.6875 500.253508 226.853571 500.253508 C 227.019643 500.253508 227.185714 500.253508 227.351786 500.253508 C 227.600893 500.253508 227.766964 500.253508 228.016071 500.253508 C 228.348214 500.253508 228.680357 500.253508 228.929464 500.253508 C 229.344643 500.253508 229.759821 500.253508 230.175 500.253508 C 236.817857 500.253508 244.125 500.588967 248.442857 505.872449 C 249.024107 517.78125 246.117857 530.948023 251.432143 542.4375 C 236.900893 548.72736 219.13125 553.843112 202.524107 550.907844 C 196.628571 550.991709 191.23125 546.798469 191.23125 540.676339 C 193.971429 522.645408 206.177679 503.356505 225.358929 500.337372 C 225.608036 500.337372 225.940179 500.337372 226.189286 500.253508 Z M 399.650893 641.733418 C 399.650893 641.733418 399.733929 641.733418 399.733929 641.733418 C 399.733929 641.733418 399.816964 641.733418 399.816964 641.733418 C 399.816964 641.733418 399.9 641.733418 399.9 641.733418 C 399.9 641.733418 399.9 641.733418 399.983036 641.733418 C 399.983036 641.733418 399.983036 641.733418 400.066071 641.733418 C 400.066071 641.733418 400.149107 641.733418 400.149107 641.733418 C 400.398214 641.733418 400.647321 641.733418 400.813393 641.733418 C 407.45625 642.068878 416.839286 655.487245 412.6875 674.860013 C 408.535714 694.484375 398.571429 703.290179 390.932143 705.051339 C 381.798214 707.147959 264.302679 732.475128 260.067857 729.707589 C 255.833036 726.856186 268.5375 667.563776 274.848214 666.389668 C 281.158929 665.215561 386.116071 642.99139 399.650893 641.733418 Z M 363.945536 657.919324 C 353.483036 658.757972 345.179464 667.64764 345.179464 678.298469 C 345.179464 689.620217 354.313393 698.76148 365.60625 698.76148 C 376.816071 698.76148 386.033036 689.620217 386.033036 678.298469 C 386.033036 667.060587 376.816071 657.919324 365.60625 657.919324 C 365.523214 657.919324 365.523214 657.919324 365.440179 657.919324 C 365.274107 657.919324 365.025 657.919324 364.775893 657.919324 C 364.692857 657.919324 364.609821 657.919324 364.526786 657.919324 C 364.44375 657.919324 364.360714 657.919324 364.277679 657.919324 C 364.277679 657.919324 364.194643 657.919324 364.194643 657.919324 C 364.111607 657.919324 364.111607 657.919324 364.028571 657.919324 C 364.028571 657.919324 363.945536 657.919324 363.945536 657.919324 Z M 363.945536 657.919324 " transform="matrix(0.047043,0,0,0.0465779,0,0)"/>
</g>
</svg>
