<?xml version="1.0" encoding="UTF-8"?>
<svg xmlns="http://www.w3.org/2000/svg" xmlns:xlink="http://www.w3.org/1999/xlink" width="px" height="50px" viewBox="0 0 35 49" version="1.1">
<g id="surface1">
<path style="fill-rule:evenodd;fill:rgb(0%,0%,0%);fill-opacity:1;stroke-width:1;stroke-linecap:butt;stroke-linejoin:miter;stroke:rgb(0%,0%,0%);stroke-opacity:1;stroke-miterlimit:4;" d="M 359.79375 85.793686 C 263.140179 87.303253 175.952679 135.441645 182.927679 159.007653 C 189.653571 181.902742 224.694643 248.575255 220.29375 324.55676 C 209.665179 329.756378 159.594643 356.509247 164.576786 396.764349 C 168.147321 425.27838 186.58125 440.290179 213.816964 446.747768 C 215.560714 458.992028 217.96875 475.848852 220.459821 493.29273 C 210.578571 495.137755 198.20625 497.989158 193.473214 501.51148 C 185.003571 507.885204 174.458036 526.16773 156.190179 563.487564 C 138.669643 599.213967 116.083929 611.961416 118.159821 619.760842 C 120.31875 627.476403 151.955357 649.952168 151.955357 649.952168 C 151.955357 649.952168 87.1875 672.511798 66.096429 682.32398 C 45.005357 692.220026 18.683036 712.850765 49.904464 728.114158 C 81.624107 743.545281 80.710714 737.842474 128.705357 777.342793 C 166.652679 808.456633 183.675 831.016263 192.725893 842.002551 C 206.094643 858.188457 218.051786 829.338967 236.402679 799.14764 C 250.767857 775.246173 268.703571 760.402105 254.670536 732.978316 C 242.879464 709.999362 223.033929 666.892857 225.109821 640.810906 C 227.185714 615.651467 232.5 605.587691 232.832143 605.000638 C 233.164286 605.168367 242.713393 610.703444 244.125 618.33514 C 245.453571 626.050702 244.374107 659.512755 252.511607 681.653061 C 260.233929 702.78699 277.8375 723.166135 288.466071 711.928253 C 299.011607 700.606505 331.3125 644.333227 348.916071 628.147321 C 366.519643 611.961416 381.964286 600.723533 386.199107 608.522959 C 390.433929 616.23852 355.226786 656.996811 311.633036 728.114158 C 268.039286 799.14764 222.286607 878.567602 208.170536 909.513712 C 194.1375 940.543686 199.783929 939.788903 221.622321 933.499043 C 244.789286 919.996811 499.708929 855.420918 520.550893 852.569515 C 541.891071 849.634247 551.523214 839.235013 534.583929 819.526786 C 517.727679 799.818559 419.08125 696.49713 411.525 677.459821 C 399.567857 647.18463 401.64375 645.08801 426.305357 666.892857 C 440.504464 679.388712 455.11875 696.413265 450.883929 673.9375 C 446.649107 651.37787 437.515179 599.381696 435.439286 585.963329 C 433.363393 572.796556 434.027679 562.732781 445.2375 558.539541 C 456.530357 554.346301 461.927679 560.97162 465 573.299745 C 469.234821 590.156569 479.033036 621.857462 483.267857 639.385204 C 486.257143 651.797194 486.838393 656.996811 499.459821 652.803571 C 512.164286 648.610332 561.321429 627.476403 576.849107 621.857462 C 592.29375 616.23852 601.427679 614.812819 607.074107 626.050702 C 612.720536 637.372449 595.116964 642.99139 585.235714 648.610332 C 575.4375 654.229273 499.459821 686.601084 488.166964 693.645727 C 476.957143 700.69037 472.722321 706.225446 488.166964 723.166135 C 503.694643 740.022959 538.81875 775.162309 552.934821 789.251594 C 566.967857 803.34088 569.625 802.586097 595.116964 799.818559 C 633.811607 795.625319 686.622321 748.493304 695.008929 735.829719 C 703.478571 723.166135 706.301786 710.502551 692.185714 702.032207 C 678.152679 693.645727 652.826786 673.9375 645.76875 666.892857 C 638.710714 659.848214 627.500893 656.996811 634.558929 642.99139 C 641.533929 628.902105 635.8875 629.573023 623.266071 616.909439 C 610.561607 604.245855 587.145536 578.834821 583.907143 547.301658 C 577.513393 486.751276 560.574107 504.614477 568.711607 474.507015 C 578.177679 439.535395 593.45625 443.477041 604.583036 445.489796 C 610.3125 447.83801 614.630357 447.167092 617.619643 441.799745 C 632.067857 415.633929 629.991964 368.753508 551.523214 347.451849 C 548.284821 262.496811 576.184821 211.674745 602.175 142.066964 C 503.694643 91.412628 464.41875 85.793686 364.360714 85.793686 C 363.28125 85.793686 362.11875 85.793686 360.95625 85.793686 C 360.541071 85.877551 360.208929 85.793686 359.79375 85.793686 Z M 545.876786 153.556441 C 545.876786 153.556441 545.959821 153.556441 546.042857 153.556441 C 546.125893 153.556441 546.208929 153.556441 546.291964 153.556441 C 546.375 153.556441 546.458036 153.556441 546.458036 153.556441 C 546.624107 153.556441 546.790179 153.556441 546.95625 153.556441 C 547.039286 153.556441 547.205357 153.556441 547.371429 153.556441 C 557.584821 153.304847 564.891964 155.569196 565.55625 156.827168 C 566.884821 160.684949 552.519643 191.211735 541.891071 227.022003 C 531.2625 262.83227 525.45 301.074617 520.550893 302.500319 C 510.669643 305.267857 506.517857 295.455676 492.401786 294.029974 C 478.36875 292.604273 472.722321 301.074617 464.252679 292.604273 C 455.866071 284.217793 460.017857 251.845982 485.34375 196.998406 C 501.0375 162.949298 527.608929 154.311224 545.876786 153.556441 Z M 307.813393 268.954401 C 307.979464 268.954401 308.145536 268.954401 308.311607 268.954401 C 308.477679 268.954401 308.64375 268.954401 308.809821 268.954401 C 308.975893 268.954401 309.141964 268.954401 309.308036 268.954401 C 309.640179 268.954401 309.972321 268.954401 310.304464 268.954401 C 318.275893 268.954401 323.673214 269.625319 326.08125 271.889668 C 330.316071 275.999043 330.316071 287.65625 331.3125 308.11926 C 332.558036 333.865753 331.727679 345.522959 326.745536 350.638712 C 322.095536 355.419005 313.875 355.083546 293.780357 355.586735 C 274.100893 356.089923 265.880357 356.341518 261.396429 351.980548 C 256.829464 347.619579 255.75 335.878508 255.75 314.996173 C 255.75 294.113839 254.5875 279.856824 257.991964 275.160395 C 261.230357 270.715561 273.602679 270.631696 290.541964 269.793048 C 297.101786 269.457589 302.83125 269.038265 307.813393 268.954401 Z M 291.289286 287.65625 C 290.874107 287.65625 290.458929 287.65625 290.04375 287.65625 C 283.317857 287.82398 276.591964 291.933355 277.090179 310.551339 C 277.588393 329.169324 277.8375 336.465561 290.04375 336.465561 C 304.907143 336.465561 306.401786 329.420918 305.654464 305.854911 C 305.15625 288.998087 304.159821 287.572385 293.365179 287.65625 C 293.116071 287.65625 292.783929 287.572385 292.534821 287.65625 C 292.36875 287.65625 292.202679 287.572385 291.953571 287.65625 C 291.7875 287.65625 291.621429 287.572385 291.455357 287.65625 C 291.455357 287.65625 291.372321 287.572385 291.289286 287.65625 Z M 471.227679 324.389031 C 471.227679 324.389031 471.310714 324.389031 471.310714 324.389031 C 471.310714 324.389031 471.39375 324.389031 471.39375 324.389031 C 471.39375 324.389031 471.476786 324.389031 471.476786 324.389031 C 471.725893 324.389031 471.891964 324.389031 472.058036 324.389031 C 496.221429 324.221301 513.825 332.691645 513.492857 339.06537 C 512.911607 350.387117 459.1875 341.329719 384.7875 382.004145 C 277.671429 440.541773 260.98125 427.710459 260.98125 421.336735 C 260.98125 415.046875 280.660714 410.014987 308.145536 395.338648 C 338.370536 379.152742 386.199107 353.825574 429.128571 334.117347 C 443.659821 327.492028 458.191071 324.72449 470.895536 324.472895 C 470.978571 324.472895 471.061607 324.472895 471.227679 324.389031 Z M 483.01875 392.40338 C 496.470536 391.900191 510.586607 398.441645 533.919643 408.673151 C 562.733036 421.336735 556.422321 433.329401 554.263393 451.611926 C 552.1875 469.894452 541.641964 488.176977 531.096429 488.93176 C 520.550893 489.602679 525.533036 478.364796 524.121429 466.37213 C 522.709821 454.463329 518.475 437.52264 505.10625 437.52264 C 491.7375 437.52264 492.401786 455.805166 490.325893 470.649235 C 488.166964 485.409439 477.621429 500.169643 466.411607 508.556122 C 455.367857 516.858737 434.276786 526.419324 432.699107 526.838648 C 434.19375 525.329082 452.627679 463.856186 457.941964 445.992985 C 465.664286 419.994898 456.530357 398.860969 473.469643 393.912946 C 476.625 392.990434 479.780357 392.487245 483.01875 392.40338 Z M 438.013393 395.925702 C 442.746429 417.05963 445.320536 458.992028 395.000893 550.404656 C 368.595536 598.207589 345.428571 600.388074 315.120536 603.574936 C 251.764286 610.200255 239.558036 584.453763 244.623214 565.584184 C 253.840179 558.287946 264.717857 551.494898 271.526786 551.494898 C 289.794643 551.494898 298.264286 562.732781 319.355357 559.965242 C 340.446429 557.113839 357.385714 530.360969 357.385714 530.360969 C 357.385714 530.360969 333.471429 534.638074 320.766964 519.123087 C 310.636607 506.711097 300.50625 499.834184 287.635714 496.815051 C 286.473214 489.183355 285.725893 480.209821 287.054464 472.745855 C 288.383036 464.694834 291.289286 455.134247 293.946429 447.334821 C 296.852679 446.831633 299.675893 446.244579 302.582143 445.657526 C 310.138393 445.992985 312.7125 449.179847 318.608036 455.805166 C 329.900893 468.46875 341.858036 476.939094 366.519643 469.894452 C 386.780357 464.107781 399.567857 447.418686 400.979464 429.136161 C 401.809821 418.653061 406.044643 411.10523 413.019643 405.318559 C 413.019643 405.318559 413.019643 405.234694 413.019643 405.234694 C 413.102679 405.234694 413.102679 405.234694 413.102679 405.234694 C 413.102679 405.234694 413.102679 405.234694 413.185714 405.234694 C 421.489286 401.880102 429.709821 398.69324 438.013393 395.925702 Z M 237.814286 450.186224 C 247.03125 450.773278 256.829464 450.773278 267.042857 450.270089 L 258.822321 499.834184 C 252.84375 502.350128 246.45 505.620855 240.305357 509.143176 C 238.644643 487.086735 238.063393 465.198023 237.814286 450.186224 Z M 237.814286 450.186224 " transform="matrix(0.047043,0,0,0.0465779,0,0)"/>
</g>
</svg>
