<?xml version="1.0" encoding="UTF-8"?>
<svg xmlns="http://www.w3.org/2000/svg" xmlns:xlink="http://www.w3.org/1999/xlink" width="35px" height="50px" viewBox="0 0 35 50" version="1.1">
<g id="surface1">
<path style=" stroke:none;fill-rule:nonzero;fill:rgb(0%,0%,0%);fill-opacity:1;" d="M 10.914062 22.984375 C 9.628906 22.984375 8.34375 22.140625 7.09375 20.449219 C 5.207031 17.894531 3.449219 17.894531 1.5625 20.449219 C 1.253906 20.863281 0.769531 20.84375 0.476562 20.40625 C 0.1875 19.96875 0.199219 19.273438 0.507812 18.859375 C 3.007812 15.476562 5.648438 15.476562 8.148438 18.859375 C 10.035156 21.414062 11.792969 21.414062 13.679688 18.859375 C 16.179688 15.476562 18.820312 15.476562 21.320312 18.859375 C 23.207031 21.414062 24.964844 21.414062 26.851562 18.859375 C 29.351562 15.476562 31.992188 15.476562 34.492188 18.859375 C 34.800781 19.273438 34.8125 19.96875 34.523438 20.40625 C 34.230469 20.84375 33.746094 20.863281 33.4375 20.449219 C 31.550781 17.894531 29.792969 17.894531 27.90625 20.449219 C 25.40625 23.832031 22.765625 23.828125 20.265625 20.449219 C 18.378906 17.894531 16.621094 17.894531 14.734375 20.449219 C 13.484375 22.140625 12.199219 22.984375 10.914062 22.984375 Z M 10.914062 22.984375 "/>
<path style=" stroke:none;fill-rule:nonzero;fill:rgb(0%,0%,0%);fill-opacity:1;" d="M 10.914062 17.636719 C 9.628906 17.636719 8.34375 16.792969 7.09375 15.101562 C 5.207031 12.546875 3.449219 12.546875 1.5625 15.101562 C 1.253906 15.515625 0.769531 15.5 0.476562 15.058594 C 0.1875 14.621094 0.199219 13.929688 0.507812 13.511719 C 3.007812 10.132812 5.648438 10.132812 8.148438 13.511719 C 10.035156 16.066406 11.792969 16.066406 13.679688 13.511719 C 16.179688 10.132812 18.820312 10.132812 21.320312 13.511719 C 23.207031 16.066406 24.964844 16.066406 26.851562 13.511719 C 29.351562 10.132812 31.992188 10.132812 34.492188 13.511719 C 34.800781 13.929688 34.8125 14.621094 34.523438 15.058594 C 34.230469 15.5 33.746094 15.515625 33.4375 15.101562 C 31.550781 12.546875 29.792969 12.546875 27.90625 15.101562 C 25.40625 18.484375 22.765625 18.484375 20.265625 15.101562 C 18.378906 12.546875 16.621094 12.546875 14.734375 15.101562 C 13.484375 16.792969 12.199219 17.636719 10.914062 17.636719 Z M 10.914062 17.636719 "/>
<path style=" stroke:none;fill-rule:nonzero;fill:rgb(0%,0%,0%);fill-opacity:1;" d="M 10.914062 28.332031 C 9.628906 28.332031 8.34375 27.484375 7.09375 25.792969 C 5.207031 23.238281 3.449219 23.238281 1.5625 25.792969 C 1.253906 26.210938 0.769531 26.191406 0.476562 25.753906 C 0.1875 25.3125 0.199219 24.621094 0.507812 24.207031 C 3.007812 20.824219 5.648438 20.824219 8.148438 24.207031 C 10.035156 26.761719 11.792969 26.761719 13.679688 24.207031 C 16.179688 20.824219 18.820312 20.824219 21.320312 24.207031 C 23.207031 26.761719 24.964844 26.761719 26.851562 24.207031 C 29.351562 20.824219 31.992188 20.824219 34.492188 24.207031 C 34.800781 24.621094 34.8125 25.3125 34.523438 25.753906 C 34.230469 26.191406 33.746094 26.210938 33.4375 25.792969 C 31.550781 23.238281 29.792969 23.238281 27.90625 25.792969 C 25.40625 29.175781 22.765625 29.175781 20.265625 25.792969 C 18.378906 23.238281 16.621094 23.238281 14.734375 25.792969 C 13.484375 27.484375 12.199219 28.332031 10.914062 28.332031 Z M 10.914062 28.332031 "/>
<path style=" stroke:none;fill-rule:nonzero;fill:rgb(0%,0%,0%);fill-opacity:1;" d="M 10.914062 33.675781 C 9.628906 33.675781 8.34375 32.832031 7.09375 31.140625 C 5.207031 28.585938 3.449219 28.585938 1.5625 31.140625 C 1.253906 31.554688 0.769531 31.535156 0.476562 31.097656 C 0.1875 30.660156 0.199219 29.96875 0.507812 29.550781 C 3.007812 26.167969 5.648438 26.167969 8.148438 29.550781 C 10.035156 32.105469 11.792969 32.105469 13.679688 29.550781 C 16.179688 26.167969 18.820312 26.167969 21.320312 29.550781 C 23.207031 32.105469 24.964844 32.105469 26.851562 29.550781 C 29.351562 26.167969 31.992188 26.171875 34.492188 29.550781 C 34.800781 29.96875 34.8125 30.660156 34.523438 31.097656 C 34.230469 31.539062 33.746094 31.554688 33.4375 31.140625 C 31.550781 28.585938 29.792969 28.585938 27.90625 31.140625 C 25.40625 34.523438 22.765625 34.523438 20.265625 31.140625 C 18.378906 28.585938 16.621094 28.585938 14.734375 31.140625 C 13.484375 32.832031 12.199219 33.675781 10.914062 33.675781 Z M 10.914062 33.675781 "/>
<path style=" stroke:none;fill-rule:nonzero;fill:rgb(0%,0%,0%);fill-opacity:1;" d="M 10.914062 39.023438 C 9.628906 39.023438 8.34375 38.175781 7.09375 36.488281 C 5.207031 33.933594 3.449219 33.933594 1.5625 36.488281 C 1.253906 36.902344 0.769531 36.882812 0.476562 36.445312 C 0.1875 36.003906 0.199219 35.3125 0.507812 34.898438 C 3.007812 31.515625 5.648438 31.515625 8.148438 34.898438 C 10.035156 37.453125 11.792969 37.453125 13.679688 34.898438 C 16.179688 31.515625 18.820312 31.515625 21.320312 34.898438 C 23.207031 37.453125 24.964844 37.453125 26.851562 34.898438 C 29.351562 31.515625 31.992188 31.515625 34.492188 34.898438 C 34.800781 35.3125 34.8125 36.003906 34.523438 36.445312 C 34.230469 36.886719 33.746094 36.902344 33.4375 36.488281 C 31.550781 33.933594 29.792969 33.929688 27.90625 36.488281 C 25.40625 39.867188 22.765625 39.867188 20.265625 36.488281 C 18.378906 33.933594 16.621094 33.933594 14.734375 36.488281 C 13.484375 38.175781 12.199219 39.023438 10.914062 39.023438 Z M 10.914062 39.023438 "/>
</g>
</svg>
